<?xml version="1.0" encoding="UTF-8" standalone="no"?>
<!-- Created with Inkscape (http://www.inkscape.org/) -->

<svg
   xmlns:dc="http://purl.org/dc/elements/1.1/"
   xmlns:cc="http://creativecommons.org/ns#"
   xmlns:rdf="http://www.w3.org/1999/02/22-rdf-syntax-ns#"
   xmlns:svg="http://www.w3.org/2000/svg"
   xmlns="http://www.w3.org/2000/svg"
   xmlns:xlink="http://www.w3.org/1999/xlink"
   xmlns:sodipodi="http://sodipodi.sourceforge.net/DTD/sodipodi-0.dtd"
   xmlns:inkscape="http://www.inkscape.org/namespaces/inkscape"
   width="362.77652mm"
   height="203.32094mm"
   viewBox="0 0 1285.4286 720.42852"
   id="svg2"
   version="1.1"
   inkscape:version="0.91 r13725"
   sodipodi:docname="triangle.svg">
  <sodipodi:namedview
     id="base"
     pagecolor="#ffffff"
     bordercolor="#666666"
     borderopacity="1.0"
     inkscape:pageopacity="0.0"
     inkscape:pageshadow="2"
     inkscape:zoom="0.7"
     inkscape:cx="888.41577"
     inkscape:cy="390.26322"
     inkscape:document-units="px"
     inkscape:current-layer="layer1"
     showgrid="false"
     inkscape:window-width="1857"
     inkscape:window-height="1056"
     inkscape:window-x="63"
     inkscape:window-y="24"
     inkscape:window-maximized="1"
     fit-margin-top="0"
     fit-margin-left="0"
     fit-margin-right="0"
     fit-margin-bottom="0" />
  <defs
     id="defs4">
    <marker
       inkscape:stockid="Arrow1Mend"
       orient="auto"
       refY="0"
       refX="0"
       id="marker9500"
       style="overflow:visible"
       inkscape:isstock="true">
      <path
         id="path9502"
         d="M 0,0 5,-5 -12.5,0 5,5 0,0 Z"
         style="fill:#000000;fill-opacity:1;fill-rule:evenodd;stroke:#000000;stroke-width:1pt;stroke-opacity:1"
         transform="matrix(-0.4,0,0,-0.4,-4,0)"
         inkscape:connector-curvature="0" />
    </marker>
    <marker
       inkscape:stockid="Arrow1Mend"
       orient="auto"
       refY="0"
       refX="0"
       id="marker5700"
       style="overflow:visible"
       inkscape:isstock="true">
      <path
         inkscape:connector-curvature="0"
         id="path5702"
         d="M 0,0 5,-5 -12.5,0 5,5 0,0 Z"
         style="fill:#000000;fill-opacity:1;fill-rule:evenodd;stroke:#000000;stroke-width:1pt;stroke-opacity:1"
         transform="matrix(-0.4,0,0,-0.4,-4,0)" />
    </marker>
    <marker
       inkscape:isstock="true"
       style="overflow:visible"
       id="Arrow1Mstart"
       refX="0"
       refY="0"
       orient="auto"
       inkscape:stockid="Arrow1Mstart">
      <path
         inkscape:connector-curvature="0"
         transform="matrix(0.4,0,0,0.4,4,0)"
         style="fill:#000000;fill-opacity:1;fill-rule:evenodd;stroke:#000000;stroke-width:1pt;stroke-opacity:1"
         d="M 0,0 5,-5 -12.5,0 5,5 0,0 Z"
         id="path4184" />
    </marker>
    <marker
       inkscape:collect="always"
       inkscape:isstock="true"
       style="overflow:visible"
       id="Arrow1Mend"
       refX="0"
       refY="0"
       orient="auto"
       inkscape:stockid="Arrow1Mend">
      <path
         inkscape:connector-curvature="0"
         transform="matrix(-0.4,0,0,-0.4,-4,0)"
         style="fill:#000000;fill-opacity:1;fill-rule:evenodd;stroke:#000000;stroke-width:1pt;stroke-opacity:1"
         d="M 0,0 5,-5 -12.5,0 5,5 0,0 Z"
         id="path4187" />
    </marker>
    <linearGradient
       inkscape:collect="always"
       id="linearGradient4154">
      <stop
         style="stop-color:#cd8282;stop-opacity:1;"
         offset="0"
         id="stop4156" />
      <stop
         style="stop-color:#cd8282;stop-opacity:0;"
         offset="1"
         id="stop4158" />
    </linearGradient>
    <linearGradient
       inkscape:collect="always"
       xlink:href="#linearGradient4154"
       id="linearGradient4160"
       x1="108.57143"
       y1="345.93362"
       x2="550"
       y2="345.93362"
       gradientUnits="userSpaceOnUse"
       gradientTransform="translate(45.000061,0)" />
    <linearGradient
       gradientTransform="translate(-547.85714,500.71429)"
       inkscape:collect="always"
       xlink:href="#linearGradient4154"
       id="linearGradient4160-3"
       x1="108.57143"
       y1="345.93362"
       x2="550"
       y2="345.93362"
       gradientUnits="userSpaceOnUse" />
    <linearGradient
       gradientTransform="translate(637.85719,495.00003)"
       inkscape:collect="always"
       xlink:href="#linearGradient4154"
       id="linearGradient4160-3-3"
       x1="108.57143"
       y1="345.93362"
       x2="550"
       y2="345.93362"
       gradientUnits="userSpaceOnUse" />
    <marker
       inkscape:collect="always"
       inkscape:isstock="true"
       style="overflow:visible"
       id="Arrow1Mend-3"
       refX="0"
       refY="0"
       orient="auto"
       inkscape:stockid="Arrow1Mend">
      <path
         transform="matrix(-0.4,0,0,-0.4,-4,0)"
         style="fill:#000000;fill-opacity:1;fill-rule:evenodd;stroke:#000000;stroke-width:1pt;stroke-opacity:1"
         d="M 0,0 5,-5 -12.5,0 5,5 0,0 Z"
         id="path4187-6"
         inkscape:connector-curvature="0" />
    </marker>
    <marker
       inkscape:isstock="true"
       style="overflow:visible"
       id="Arrow1Mstart-5"
       refX="0"
       refY="0"
       orient="auto"
       inkscape:stockid="Arrow1Mstart">
      <path
         transform="matrix(0.4,0,0,0.4,4,0)"
         style="fill:#000000;fill-opacity:1;fill-rule:evenodd;stroke:#000000;stroke-width:1pt;stroke-opacity:1"
         d="M 0,0 5,-5 -12.5,0 5,5 0,0 Z"
         id="path4184-3"
         inkscape:connector-curvature="0" />
    </marker>
    <marker
       inkscape:stockid="Arrow1Mend"
       orient="auto"
       refY="0"
       refX="0"
       id="marker5700-5"
       style="overflow:visible"
       inkscape:isstock="true">
      <path
         inkscape:connector-curvature="0"
         id="path5702-6"
         d="M 0,0 5,-5 -12.5,0 5,5 0,0 Z"
         style="fill:#000000;fill-opacity:1;fill-rule:evenodd;stroke:#000000;stroke-width:1pt;stroke-opacity:1"
         transform="matrix(-0.4,0,0,-0.4,-4,0)" />
    </marker>
    <marker
       inkscape:isstock="true"
       style="overflow:visible"
       id="Arrow1Mstart-5-9"
       refX="0"
       refY="0"
       orient="auto"
       inkscape:stockid="Arrow1Mstart">
      <path
         transform="matrix(0.4,0,0,0.4,4,0)"
         style="fill:#000000;fill-opacity:1;fill-rule:evenodd;stroke:#000000;stroke-width:1pt;stroke-opacity:1"
         d="M 0,0 5,-5 -12.5,0 5,5 0,0 Z"
         id="path4184-3-1"
         inkscape:connector-curvature="0" />
    </marker>
    <marker
       inkscape:stockid="Arrow1Mend"
       orient="auto"
       refY="0"
       refX="0"
       id="marker5700-5-2"
       style="overflow:visible"
       inkscape:isstock="true">
      <path
         inkscape:connector-curvature="0"
         id="path5702-6-7"
         d="M 0,0 5,-5 -12.5,0 5,5 0,0 Z"
         style="fill:#000000;fill-opacity:1;fill-rule:evenodd;stroke:#000000;stroke-width:1pt;stroke-opacity:1"
         transform="matrix(-0.4,0,0,-0.4,-4,0)" />
    </marker>
  </defs>
  <metadata
     id="metadata7">
    <rdf:RDF>
      <cc:Work
         rdf:about="">
        <dc:format>image/svg+xml</dc:format>
        <dc:type
           rdf:resource="http://purl.org/dc/dcmitype/StillImage" />
        <dc:title></dc:title>
      </cc:Work>
    </rdf:RDF>
  </metadata>
  <g
     transform="translate(271.28569,-190.3622)"
     inkscape:label="Layer 1"
     inkscape:groupmode="layer"
     id="layer1">
    <ellipse
       style="color:#000000;clip-rule:nonzero;display:inline;overflow:visible;visibility:visible;opacity:1;isolation:auto;mix-blend-mode:normal;color-interpolation:sRGB;color-interpolation-filters:linearRGB;solid-color:#000000;solid-opacity:1;fill:url(#linearGradient4160);fill-opacity:1;fill-rule:nonzero;stroke:#b38888;stroke-width:4;stroke-linecap:butt;stroke-linejoin:miter;stroke-miterlimit:4;stroke-dasharray:none;stroke-dashoffset:0;stroke-opacity:1;color-rendering:auto;image-rendering:auto;shape-rendering:auto;text-rendering:auto;enable-background:accumulate"
       id="path4136"
       cx="374.28577"
       cy="345.93362"
       rx="220.71428"
       ry="153.57143" />
    <text
       xml:space="preserve"
       style="font-style:normal;font-weight:normal;font-size:40px;line-height:125%;font-family:sans-serif;letter-spacing:0px;word-spacing:0px;fill:#000000;fill-opacity:1;stroke:none;stroke-width:1px;stroke-linecap:butt;stroke-linejoin:miter;stroke-opacity:1"
       x="274.28571"
       y="260.93362"
       id="text4218"
       sodipodi:linespacing="125%"><tspan
         sodipodi:role="line"
         id="tspan4220"
         x="274.28571"
         y="260.93362" /></text>
    <g
       transform="translate(-52.857143,64.28571)"
       id="g4319">
      <g
         style="font-style:normal;font-variant:normal;font-weight:normal;font-stretch:normal;letter-spacing:normal;word-spacing:normal;text-anchor:start;fill:none;fill-opacity:1;fill-rule:evenodd;stroke:#000000;stroke-linecap:butt;stroke-linejoin:miter;stroke-miterlimit:10.43299961;stroke-dasharray:none;stroke-dashoffset:0;stroke-opacity:1"
         word-spacing="normal"
         letter-spacing="normal"
         font-size-adjust="none"
         font-stretch="normal"
         font-weight="normal"
         font-variant="normal"
         font-style="normal"
         stroke-miterlimit="10.433"
         xml:space="preserve"
         transform="matrix(1.0629921,0,0,-1.0629921,-186.02362,789.27165)"
         id="g4321"><path
           style="fill:#000000;stroke-width:0"
           inkscape:connector-curvature="0"
           id="path4323"
           d="m 488.13,440.62 0,0.02 0,0.01 0,0.02 -0.01,0.02 0,0.01 0,0.02 -0.01,0.02 0,0.02 -0.01,0.02 -0.01,0.02 -0.01,0.02 -0.01,0.02 -0.01,0.02 -0.01,0.02 -0.01,0.02 -0.02,0.02 -0.01,0.02 -0.02,0.02 -0.02,0.02 -0.02,0.02 -0.02,0.02 -0.02,0.01 -0.03,0.02 -0.02,0.01 -0.03,0.01 -0.02,0.01 -0.01,0 -0.02,0.01 -0.01,0 -0.02,0.01 -0.02,0 -0.01,0.01 -0.02,0 -0.02,0 -0.02,0 -0.02,0 -0.02,0.01 -0.02,0 -0.02,0 c -0.25,0 -0.3,-0.05 -0.9,-0.75 l -2.39,-2.84 c -1.29,2.34 -3.88,3.59 -7.12,3.59 -6.33,0 -12.3,-5.73 -12.3,-11.76 0,-4.03 2.64,-6.32 5.18,-7.07 l 5.33,-1.4 c 1.84,-0.44 4.58,-1.19 4.58,-5.28 0,-4.48 -4.08,-9.16 -8.97,-9.16 -3.19,0 -8.71,1.09 -8.71,7.27 0,1.2 0.25,2.39 0.29,2.69 0.05,0.2 0.11,0.25 0.11,0.35 0,0.5 -0.35,0.55 -0.6,0.55 -0.25,0 -0.35,-0.05 -0.5,-0.2 -0.2,-0.2 -2.99,-11.56 -2.99,-11.71 0,-0.3 0.25,-0.5 0.55,-0.5 0.25,0 0.3,0.05 0.9,0.75 l 2.44,2.84 c 2.14,-2.89 5.52,-3.59 8.41,-3.59 6.78,0 12.66,6.63 12.66,12.81 0,3.43 -1.7,5.13 -2.44,5.83 -1.15,1.14 -1.9,1.34 -6.33,2.48 -1.1,0.3 -2.89,0.8 -3.34,0.9 -1.34,0.45 -3.04,1.89 -3.04,4.53 0,4.04 3.99,8.27 8.72,8.27 4.13,0 7.17,-2.14 7.17,-7.72 0,-1.59 -0.2,-2.49 -0.2,-2.79 0,-0.05 0,-0.5 0.6,-0.5 0.5,0 0.55,0.15 0.75,1 z" /><polygon
           style="fill:#000000;stroke-width:0"
           id="polygon4325"
           points="502.75,415.32 502.75,418.2 489.55,418.2 489.55,415.32 " /><path
           style="fill:#000000;stroke-width:0"
           inkscape:connector-curvature="0"
           id="path4327"
           d="m 522.59,409.79 0.02,-0.19 0.03,-0.19 0.03,-0.19 0.04,-0.18 0.05,-0.19 0.06,-0.18 0.06,-0.18 0.07,-0.18 0.07,-0.18 0.08,-0.18 0.09,-0.17 0.1,-0.16 0.1,-0.17 0.1,-0.15 0.12,-0.16 0.12,-0.14 0.12,-0.15 0.13,-0.13 0.14,-0.13 0.15,-0.12 0.15,-0.12 0.15,-0.1 0.17,-0.1 0.17,-0.09 0.17,-0.08 0.18,-0.07 0.19,-0.07 0.19,-0.05 0.2,-0.04 0.21,-0.03 0.21,-0.01 0.21,-0.01 c 1.05,0 4.09,0.7 4.09,4.73 l 0,2.79 -1.25,0 0,-2.79 c 0,-2.89 -1.24,-3.18 -1.79,-3.18 -1.64,0 -1.84,2.24 -1.84,2.48 l 0,9.97 c 0,2.09 0,4.03 -1.8,5.88 -1.94,1.94 -4.43,2.74 -6.82,2.74 -4.09,0 -7.52,-2.34 -7.52,-5.63 0,-1.5 0.99,-2.34 2.29,-2.34 1.39,0 2.29,0.99 2.29,2.29 0,0.59 -0.25,2.24 -2.54,2.29 1.35,1.74 3.78,2.29 5.38,2.29 2.44,0 5.28,-1.94 5.28,-6.38 l 0,-1.84 0,-1.04 0,-4.99 c 0,-4.73 -3.59,-6.42 -5.83,-6.42 -2.44,0 -4.48,1.74 -4.48,4.23 0,2.74 2.09,6.88 10.31,7.18 l 0,0 0,1.04 c -2.54,-0.15 -6.03,-0.3 -9.17,-1.79 -3.73,-1.69 -4.98,-4.28 -4.98,-6.48 0,-4.03 4.84,-5.28 7.97,-5.28 3.29,0 5.58,2 6.53,4.34 z" /><path
           style="fill:#000000;stroke-width:0"
           inkscape:connector-curvature="0"
           id="path4329"
           d="m 550.48,409.93 0,-4.48 7.17,0.55 0,1.54 c -3.49,0 -3.88,0.35 -3.88,2.79 l 0,17.69 -7.33,-0.55 0,-1.54 c 3.49,0 3.89,-0.35 3.89,-2.79 l 0,-8.87 c 0,-4.34 -2.39,-7.72 -6.03,-7.72 -4.18,0 -4.38,2.34 -4.38,4.93 l 0,16.54 -7.33,-0.55 0,-1.54 c 3.89,0 3.89,-0.15 3.89,-4.59 l 0,-7.47 c 0,-3.89 0,-8.42 7.57,-8.42 2.79,0 4.98,1.4 6.43,4.48 z" /><path
           style="fill:#000000;stroke-width:0"
           inkscape:connector-curvature="0"
           id="path4331"
           d="m 566.62,425.93 7.12,0 0,1.54 -7.12,0 0,9.17 -1.25,0 c -0.05,-4.09 -1.54,-9.42 -6.42,-9.62 l 0,-1.09 4.23,0 0,-13.75 c 0,-6.13 4.63,-6.73 6.42,-6.73 3.55,0 4.94,3.54 4.94,6.73 l 0,2.84 -1.25,0 0,-2.74 c 0,-3.69 -1.49,-5.58 -3.33,-5.58 -3.34,0 -3.34,4.53 -3.34,5.38 z" /><path
           style="fill:#000000;stroke-width:0"
           inkscape:connector-curvature="0"
           id="path4333"
           d="m 601.46,416.66 -0.01,0.59 -0.05,0.59 -0.07,0.58 -0.09,0.57 -0.13,0.56 -0.15,0.55 -0.17,0.54 -0.2,0.53 -0.22,0.52 -0.25,0.5 -0.26,0.49 -0.29,0.47 -0.31,0.46 -0.33,0.44 -0.35,0.42 -0.36,0.41 -0.39,0.39 -0.4,0.36 -0.41,0.35 -0.44,0.33 -0.44,0.3 -0.46,0.29 -0.48,0.26 -0.48,0.23 -0.5,0.21 -0.51,0.19 -0.52,0.16 -0.53,0.13 -0.54,0.1 -0.55,0.08 -0.56,0.04 -0.56,0.02 -0.05,-1.1 c 2.19,0 4.34,-1.1 5.63,-3.24 1.3,-2.14 1.3,-5.03 1.3,-6.92 0,-1.79 0,-4.49 -1.1,-6.68 -1.09,-2.24 -3.28,-3.68 -5.78,-3.68 l 0,0 c -2.14,0 -4.33,1.04 -5.68,3.34 -1.24,2.19 -1.24,5.23 -1.24,7.02 0,1.94 0,4.63 1.2,6.82 1.34,2.3 3.68,3.34 5.67,3.34 l 0.05,1.1 c -6.22,0 -11.05,-5.43 -11.05,-11.66 0,-6.43 5.17,-11.21 11,-11.21 6.03,0 11.06,4.88 11.06,11.21 z" /><path
           style="fill:#000000;stroke-width:0"
           inkscape:connector-curvature="0"
           id="path4335"
           d="m 608.48,423.14 0,-13.35 c 0,-2.25 -0.55,-2.25 -3.89,-2.25 l 0,-1.54 11.21,0 0,1.54 c -3.33,0 -3.88,0 -3.88,2.25 l 0,9.16 c 0,5.18 3.53,7.97 6.72,7.97 3.14,0 3.69,-2.69 3.69,-5.53 l 0,-11.6 c 0,-2.25 -0.55,-2.25 -3.89,-2.25 l 0,-1.54 11.21,0 0,1.54 c -3.34,0 -3.88,0 -3.88,2.25 l 0,9.16 c 0,5.18 3.53,7.97 6.72,7.97 3.14,0 3.69,-2.69 3.69,-5.53 l 0,-11.6 c 0,-2.25 -0.55,-2.25 -3.89,-2.25 l 0,-1.54 11.21,0 0,1.54 c -2.59,0 -3.84,0 -3.89,1.5 l 0,9.51 c 0,4.29 0,5.83 -1.54,7.63 -0.7,0.84 -2.34,1.84 -5.23,1.84 -4.19,0 -6.38,-2.99 -7.23,-4.88 -0.69,4.33 -4.38,4.88 -6.62,4.88 -3.64,0 -5.98,-2.14 -7.37,-5.23 l 0,5.23 -7.03,-0.55 0,-1.54 c 3.49,0 3.89,-0.35 3.89,-2.79 z" /><path
           style="fill:#000000;stroke-width:0"
           inkscape:connector-curvature="0"
           id="path4337"
           d="m 660.59,409.79 0.02,-0.19 0.03,-0.19 0.03,-0.19 0.04,-0.18 0.05,-0.19 0.06,-0.18 0.06,-0.18 0.07,-0.18 0.07,-0.18 0.08,-0.18 0.09,-0.17 0.1,-0.16 0.1,-0.17 0.1,-0.15 0.12,-0.16 0.12,-0.14 0.12,-0.15 0.13,-0.13 0.14,-0.13 0.15,-0.12 0.15,-0.12 0.15,-0.1 0.17,-0.1 0.17,-0.09 0.17,-0.08 0.18,-0.07 0.19,-0.07 0.19,-0.05 0.2,-0.04 0.21,-0.03 0.21,-0.01 0.21,-0.01 c 1.05,0 4.09,0.7 4.09,4.73 l 0,2.79 -1.25,0 0,-2.79 c 0,-2.89 -1.24,-3.18 -1.79,-3.18 -1.64,0 -1.84,2.24 -1.84,2.48 l 0,9.97 c 0,2.09 0,4.03 -1.8,5.88 -1.94,1.94 -4.43,2.74 -6.82,2.74 -4.09,0 -7.53,-2.34 -7.53,-5.63 0,-1.5 1,-2.34 2.3,-2.34 1.39,0 2.29,0.99 2.29,2.29 0,0.59 -0.25,2.24 -2.54,2.29 1.35,1.74 3.78,2.29 5.38,2.29 2.44,0 5.28,-1.94 5.28,-6.38 l 0,-1.84 0,-1.04 0,-4.99 c 0,-4.73 -3.59,-6.42 -5.83,-6.42 -2.44,0 -4.48,1.74 -4.48,4.23 0,2.74 2.09,6.88 10.31,7.18 l 0,0 0,1.04 c -2.54,-0.15 -6.03,-0.3 -9.17,-1.79 -3.73,-1.69 -4.98,-4.28 -4.98,-6.48 0,-4.03 4.84,-5.28 7.97,-5.28 3.29,0 5.58,2 6.53,4.34 z" /><path
           style="fill:#000000;stroke-width:0"
           inkscape:connector-curvature="0"
           id="path4339"
           d="m 677.62,425.93 7.12,0 0,1.54 -7.12,0 0,9.17 -1.25,0 c -0.05,-4.09 -1.54,-9.42 -6.42,-9.62 l 0,-1.09 4.23,0 0,-13.75 c 0,-6.13 4.63,-6.73 6.42,-6.73 3.55,0 4.94,3.54 4.94,6.73 l 0,2.84 -1.25,0 0,-2.74 c 0,-3.69 -1.49,-5.58 -3.33,-5.58 -3.34,0 -3.34,4.53 -3.34,5.38 z" /><path
           style="fill:#000000;stroke-width:0"
           inkscape:connector-curvature="0"
           id="path4341"
           d="m 704.59,409.79 0.02,-0.19 0.03,-0.19 0.03,-0.19 0.04,-0.18 0.05,-0.19 0.06,-0.18 0.06,-0.18 0.07,-0.18 0.07,-0.18 0.08,-0.18 0.09,-0.17 0.1,-0.16 0.1,-0.17 0.1,-0.15 0.12,-0.16 0.12,-0.14 0.12,-0.15 0.13,-0.13 0.14,-0.13 0.15,-0.12 0.15,-0.12 0.15,-0.1 0.17,-0.1 0.17,-0.09 0.17,-0.08 0.18,-0.07 0.19,-0.07 0.19,-0.05 0.2,-0.04 0.21,-0.03 0.21,-0.01 0.21,-0.01 c 1.05,0 4.09,0.7 4.09,4.73 l 0,2.79 -1.25,0 0,-2.79 c 0,-2.89 -1.24,-3.18 -1.79,-3.18 -1.64,0 -1.84,2.24 -1.84,2.48 l 0,9.97 c 0,2.09 0,4.03 -1.8,5.88 -1.94,1.94 -4.43,2.74 -6.82,2.74 -4.09,0 -7.53,-2.34 -7.53,-5.63 0,-1.5 1,-2.34 2.3,-2.34 1.39,0 2.29,0.99 2.29,2.29 0,0.59 -0.25,2.24 -2.54,2.29 1.35,1.74 3.78,2.29 5.38,2.29 2.44,0 5.28,-1.94 5.28,-6.38 l 0,-1.84 0,-1.04 0,-4.99 c 0,-4.73 -3.59,-6.42 -5.83,-6.42 -2.44,0 -4.48,1.74 -4.48,4.23 0,2.74 2.09,6.88 10.31,7.18 l 0,0 0,1.04 c -2.54,-0.15 -6.03,-0.3 -9.17,-1.79 -3.73,-1.69 -4.98,-4.28 -4.98,-6.48 0,-4.03 4.84,-5.28 7.97,-5.28 3.29,0 5.58,2 6.53,4.34 z" /></g>    </g>
    <g
       transform="translate(-57.142853,-52.857141)"
       id="g4423">
      <g
         style="font-style:normal;font-variant:normal;font-weight:normal;font-stretch:normal;letter-spacing:normal;word-spacing:normal;text-anchor:start;fill:none;fill-opacity:1;fill-rule:evenodd;stroke:#000000;stroke-linecap:butt;stroke-linejoin:miter;stroke-miterlimit:10.43299961;stroke-dasharray:none;stroke-dashoffset:0;stroke-opacity:1"
         id="g4425"
         transform="matrix(1.0629921,0,0,-1.0629921,-186.02362,789.27165)"
         xml:space="preserve"
         stroke-miterlimit="10.433"
         font-style="normal"
         font-variant="normal"
         font-weight="normal"
         font-stretch="normal"
         font-size-adjust="none"
         letter-spacing="normal"
         word-spacing="normal"><path
           style="fill:#000000;stroke-width:0"
           inkscape:connector-curvature="0"
           d="m 463.97,409.89 -0.05,-0.18 -0.04,-0.17 -0.04,-0.16 -0.05,-0.15 -0.04,-0.15 -0.05,-0.13 -0.04,-0.13 -0.06,-0.12 -0.05,-0.11 -0.06,-0.11 -0.06,-0.1 -0.08,-0.09 -0.07,-0.09 -0.09,-0.07 -0.09,-0.08 -0.11,-0.06 -0.11,-0.07 -0.13,-0.05 -0.13,-0.05 -0.15,-0.05 -0.16,-0.04 -0.09,-0.02 -0.09,-0.02 -0.09,-0.01 -0.1,-0.02 -0.1,-0.01 -0.1,-0.01 -0.11,-0.02 -0.12,-0.01 -0.11,-0.01 -0.13,-0.01 -0.12,-0.01 -0.13,0 -0.14,-0.01 -0.14,-0.01 -0.14,0 -0.15,-0.01 -0.16,0 -0.16,0 -0.16,0 -0.17,-0.01 -0.18,0 -0.18,0 c -0.85,0 -1.35,0 -1.35,-0.99 0,-0.55 0.45,-0.55 1.35,-0.55 l 17.78,0 c 7.87,0 13.75,5.88 13.75,10.76 0,3.59 -2.89,6.47 -7.72,7.03 5.18,0.94 10.41,4.62 10.41,9.36 0,3.69 -3.29,6.87 -9.27,6.87 l -0.69,-1.54 c 4.38,0 5.42,-2.94 5.42,-5.13 0,-4.39 -4.28,-9.12 -10.35,-9.12 l -7.28,0 -0.3,-1.09 9.42,0 c 4.78,0 5.73,-3.69 5.73,-5.83 0,-4.93 -4.44,-9.77 -10.32,-9.77 l -6.77,0 c -0.7,0 -0.8,0 -1.09,0.05 -0.5,0.05 -0.65,0.11 -0.65,0.5 0,0.15 0,0.25 0.25,1.15 l 3.43,13.9 0.3,1.09 3.09,12.36 c 0.45,1.74 0.55,1.89 2.69,1.89 l 6.43,0 0.69,1.54 -16.73,0 c -0.95,0 -1.45,0 -1.45,-0.99 0,-0.55 0.45,-0.55 1.4,-0.55 0.1,0 1.04,0 1.89,-0.1 0.89,-0.1 1.34,-0.15 1.34,-0.8 0,-0.2 -0.05,-0.35 -0.2,-0.94 z"
           id="path4427" /><polygon
           style="fill:#000000;stroke-width:0"
           points="509.75,415.32 509.75,418.2 496.55,418.2 496.55,415.32 "
           id="polygon4429" /><path
           style="fill:#000000;stroke-width:0"
           inkscape:connector-curvature="0"
           d="m 528.59,409.79 0.02,-0.19 0.03,-0.19 0.03,-0.19 0.04,-0.18 0.05,-0.19 0.06,-0.18 0.06,-0.18 0.07,-0.18 0.07,-0.18 0.08,-0.18 0.09,-0.17 0.1,-0.16 0.1,-0.17 0.1,-0.15 0.12,-0.16 0.12,-0.14 0.12,-0.15 0.13,-0.13 0.14,-0.13 0.15,-0.12 0.15,-0.12 0.15,-0.1 0.17,-0.1 0.17,-0.09 0.17,-0.08 0.18,-0.07 0.19,-0.07 0.19,-0.05 0.2,-0.04 0.21,-0.03 0.21,-0.01 0.21,-0.01 c 1.05,0 4.09,0.7 4.09,4.73 l 0,2.79 -1.25,0 0,-2.79 c 0,-2.89 -1.24,-3.18 -1.79,-3.18 -1.64,0 -1.84,2.24 -1.84,2.48 l 0,9.97 c 0,2.09 0,4.03 -1.8,5.88 -1.94,1.94 -4.43,2.74 -6.82,2.74 -4.09,0 -7.53,-2.34 -7.53,-5.63 0,-1.5 1,-2.34 2.3,-2.34 1.39,0 2.29,0.99 2.29,2.29 0,0.59 -0.25,2.24 -2.54,2.29 1.35,1.74 3.78,2.29 5.38,2.29 2.44,0 5.28,-1.94 5.28,-6.38 l 0,-1.84 0,-1.04 0,-4.99 c 0,-4.73 -3.59,-6.42 -5.83,-6.42 -2.44,0 -4.48,1.74 -4.48,4.23 0,2.74 2.09,6.88 10.31,7.18 l 0,0 0,1.04 c -2.54,-0.15 -6.03,-0.3 -9.17,-1.79 -3.73,-1.69 -4.98,-4.28 -4.98,-6.48 0,-4.03 4.84,-5.28 7.97,-5.28 3.29,0 5.58,2 6.53,4.34 z"
           id="path4431" /><path
           style="fill:#000000;stroke-width:0"
           inkscape:connector-curvature="0"
           d="m 556.48,409.93 0,-4.48 7.17,0.55 0,1.54 c -3.49,0 -3.88,0.35 -3.88,2.79 l 0,17.69 -7.33,-0.55 0,-1.54 c 3.49,0 3.89,-0.35 3.89,-2.79 l 0,-8.87 c 0,-4.34 -2.39,-7.72 -6.03,-7.72 -4.18,0 -4.38,2.34 -4.38,4.93 l 0,16.54 -7.33,-0.55 0,-1.54 c 3.89,0 3.89,-0.15 3.89,-4.59 l 0,-7.47 c 0,-3.89 0,-8.42 7.57,-8.42 2.79,0 4.98,1.4 6.43,4.48 z"
           id="path4433" /><path
           style="fill:#000000;stroke-width:0"
           inkscape:connector-curvature="0"
           d="m 573.62,425.93 7.12,0 0,1.54 -7.12,0 0,9.17 -1.25,0 c -0.05,-4.09 -1.54,-9.42 -6.42,-9.62 l 0,-1.09 4.23,0 0,-13.75 c 0,-6.13 4.63,-6.73 6.42,-6.73 3.55,0 4.94,3.54 4.94,6.73 l 0,2.84 -1.25,0 0,-2.74 c 0,-3.69 -1.49,-5.58 -3.33,-5.58 -3.34,0 -3.34,4.53 -3.34,5.38 z"
           id="path4435" /><path
           style="fill:#000000;stroke-width:0"
           inkscape:connector-curvature="0"
           d="m 607.46,416.66 -0.01,0.59 -0.05,0.59 -0.07,0.58 -0.09,0.57 -0.13,0.56 -0.15,0.55 -0.17,0.54 -0.2,0.53 -0.22,0.52 -0.25,0.5 -0.26,0.49 -0.29,0.47 -0.31,0.46 -0.33,0.44 -0.35,0.42 -0.36,0.41 -0.39,0.39 -0.4,0.36 -0.41,0.35 -0.44,0.33 -0.44,0.3 -0.46,0.29 -0.48,0.26 -0.48,0.23 -0.5,0.21 -0.51,0.19 -0.52,0.16 -0.53,0.13 -0.54,0.1 -0.55,0.08 -0.56,0.04 -0.56,0.02 -0.05,-1.1 c 2.19,0 4.34,-1.1 5.63,-3.24 1.3,-2.14 1.3,-5.03 1.3,-6.92 0,-1.79 0,-4.49 -1.1,-6.68 -1.09,-2.24 -3.28,-3.68 -5.78,-3.68 l 0,0 c -2.14,0 -4.33,1.04 -5.68,3.34 -1.24,2.19 -1.24,5.23 -1.24,7.02 0,1.94 0,4.63 1.2,6.82 1.34,2.3 3.68,3.34 5.67,3.34 l 0.05,1.1 c -6.22,0 -11.05,-5.43 -11.05,-11.66 0,-6.43 5.17,-11.21 11,-11.21 6.03,0 11.06,4.88 11.06,11.21 z"
           id="path4437" /><path
           style="fill:#000000;stroke-width:0"
           inkscape:connector-curvature="0"
           d="m 614.48,423.14 0,-13.35 c 0,-2.25 -0.55,-2.25 -3.89,-2.25 l 0,-1.54 11.21,0 0,1.54 c -3.33,0 -3.88,0 -3.88,2.25 l 0,9.16 c 0,5.18 3.53,7.97 6.72,7.97 3.14,0 3.69,-2.69 3.69,-5.53 l 0,-11.6 c 0,-2.25 -0.55,-2.25 -3.89,-2.25 l 0,-1.54 11.21,0 0,1.54 c -3.34,0 -3.88,0 -3.88,2.25 l 0,9.16 c 0,5.18 3.53,7.97 6.72,7.97 3.14,0 3.69,-2.69 3.69,-5.53 l 0,-11.6 c 0,-2.25 -0.55,-2.25 -3.89,-2.25 l 0,-1.54 11.21,0 0,1.54 c -2.59,0 -3.84,0 -3.89,1.5 l 0,9.51 c 0,4.29 0,5.83 -1.54,7.63 -0.7,0.84 -2.34,1.84 -5.23,1.84 -4.19,0 -6.38,-2.99 -7.23,-4.88 -0.69,4.33 -4.38,4.88 -6.62,4.88 -3.64,0 -5.98,-2.14 -7.37,-5.23 l 0,5.23 -7.03,-0.55 0,-1.54 c 3.49,0 3.89,-0.35 3.89,-2.79 z"
           id="path4439" /><path
           style="fill:#000000;stroke-width:0"
           inkscape:connector-curvature="0"
           d="m 667.59,409.79 0.02,-0.19 0.03,-0.19 0.03,-0.19 0.04,-0.18 0.05,-0.19 0.06,-0.18 0.06,-0.18 0.07,-0.18 0.07,-0.18 0.08,-0.18 0.09,-0.17 0.1,-0.16 0.1,-0.17 0.1,-0.15 0.12,-0.16 0.12,-0.14 0.12,-0.15 0.13,-0.13 0.14,-0.13 0.15,-0.12 0.15,-0.12 0.15,-0.1 0.17,-0.1 0.17,-0.09 0.17,-0.08 0.18,-0.07 0.19,-0.07 0.19,-0.05 0.2,-0.04 0.21,-0.03 0.21,-0.01 0.21,-0.01 c 1.05,0 4.09,0.7 4.09,4.73 l 0,2.79 -1.25,0 0,-2.79 c 0,-2.89 -1.24,-3.18 -1.79,-3.18 -1.64,0 -1.84,2.24 -1.84,2.48 l 0,9.97 c 0,2.09 0,4.03 -1.8,5.88 -1.94,1.94 -4.43,2.74 -6.82,2.74 -4.09,0 -7.53,-2.34 -7.53,-5.63 0,-1.5 1,-2.34 2.3,-2.34 1.39,0 2.29,0.99 2.29,2.29 0,0.59 -0.25,2.24 -2.54,2.29 1.35,1.74 3.78,2.29 5.38,2.29 2.44,0 5.28,-1.94 5.28,-6.38 l 0,-1.84 0,-1.04 0,-4.99 c 0,-4.73 -3.59,-6.42 -5.83,-6.42 -2.44,0 -4.48,1.74 -4.48,4.23 0,2.74 2.09,6.88 10.31,7.18 l 0,0 0,1.04 c -2.54,-0.15 -6.03,-0.3 -9.17,-1.79 -3.73,-1.69 -4.98,-4.28 -4.98,-6.48 0,-4.03 4.84,-5.28 7.97,-5.28 3.29,0 5.58,2 6.53,4.34 z"
           id="path4441" /><path
           style="fill:#000000;stroke-width:0"
           inkscape:connector-curvature="0"
           d="m 684.62,425.93 7.12,0 0,1.54 -7.12,0 0,9.17 -1.25,0 c -0.05,-4.09 -1.54,-9.42 -6.42,-9.62 l 0,-1.09 4.23,0 0,-13.75 c 0,-6.13 4.63,-6.73 6.42,-6.73 3.55,0 4.94,3.54 4.94,6.73 l 0,2.84 -1.25,0 0,-2.74 c 0,-3.69 -1.49,-5.58 -3.33,-5.58 -3.34,0 -3.34,4.53 -3.34,5.38 z"
           id="path4443" /><path
           style="fill:#000000;stroke-width:0"
           inkscape:connector-curvature="0"
           d="m 711.59,409.79 0.02,-0.19 0.03,-0.19 0.03,-0.19 0.04,-0.18 0.05,-0.19 0.06,-0.18 0.06,-0.18 0.07,-0.18 0.07,-0.18 0.08,-0.18 0.09,-0.17 0.1,-0.16 0.1,-0.17 0.1,-0.15 0.12,-0.16 0.12,-0.14 0.12,-0.15 0.13,-0.13 0.14,-0.13 0.15,-0.12 0.15,-0.12 0.15,-0.1 0.17,-0.1 0.17,-0.09 0.17,-0.08 0.18,-0.07 0.19,-0.07 0.19,-0.05 0.2,-0.04 0.21,-0.03 0.21,-0.01 0.21,-0.01 c 1.05,0 4.09,0.7 4.09,4.73 l 0,2.79 -1.25,0 0,-2.79 c 0,-2.89 -1.24,-3.18 -1.79,-3.18 -1.64,0 -1.84,2.24 -1.84,2.48 l 0,9.97 c 0,2.09 0,4.03 -1.8,5.88 -1.94,1.94 -4.43,2.74 -6.82,2.74 -4.09,0 -7.53,-2.34 -7.53,-5.63 0,-1.5 1,-2.34 2.3,-2.34 1.39,0 2.29,0.99 2.29,2.29 0,0.59 -0.25,2.24 -2.54,2.29 1.35,1.74 3.78,2.29 5.38,2.29 2.44,0 5.28,-1.94 5.28,-6.38 l 0,-1.84 0,-1.04 0,-4.99 c 0,-4.73 -3.59,-6.42 -5.83,-6.42 -2.44,0 -4.48,1.74 -4.48,4.23 0,2.74 2.09,6.88 10.31,7.18 l 0,0 0,1.04 c -2.54,-0.15 -6.03,-0.3 -9.17,-1.79 -3.73,-1.69 -4.98,-4.28 -4.98,-6.48 0,-4.03 4.84,-5.28 7.97,-5.28 3.29,0 5.58,2 6.53,4.34 z"
           id="path4445" /></g>    </g>
    <flowRoot
       style="font-style:normal;font-weight:normal;font-size:40px;line-height:125%;font-family:sans-serif;letter-spacing:0px;word-spacing:0px;fill:#000000;fill-opacity:1;stroke:none;stroke-width:1px;stroke-linecap:butt;stroke-linejoin:miter;stroke-opacity:1"
       id="flowRoot4498"
       xml:space="preserve"><flowRegion
         id="flowRegion4500"><rect
           y="-1.9235322"
           x="44.285713"
           height="72.85714"
           width="274.28571"
           id="rect4502" /></flowRegion><flowPara
         id="flowPara4504" /></flowRoot>    <path
       sodipodi:nodetypes="cc"
       inkscape:connector-curvature="0"
       id="path4172"
       d="m 237.14286,286.64792 c -69.60522,60.49069 -36.72777,92.21431 0,122.85714"
       style="fill:none;fill-rule:evenodd;stroke:#000000;stroke-width:4;stroke-linecap:butt;stroke-linejoin:miter;stroke-miterlimit:4;stroke-dasharray:none;stroke-opacity:1;marker-end:url(#Arrow1Mend)" />
    <path
       sodipodi:nodetypes="cc"
       inkscape:connector-curvature="0"
       id="path4172-7"
       d="m 531.54349,416.1975 c 69.60522,-60.49069 36.72777,-92.21431 0,-122.85713"
       style="fill:none;fill-rule:evenodd;stroke:#000000;stroke-width:4;stroke-linecap:butt;stroke-linejoin:miter;stroke-miterlimit:4;stroke-dasharray:none;stroke-opacity:1;marker-end:url(#Arrow1Mend-3)" />
    <g
       transform="translate(-184.28571,285.71429)"
       id="g5339">
      <g
         style="font-style:normal;font-variant:normal;font-weight:normal;font-stretch:normal;letter-spacing:normal;word-spacing:normal;text-anchor:start;fill:none;fill-opacity:1;fill-rule:evenodd;stroke:#000000;stroke-linecap:butt;stroke-linejoin:miter;stroke-miterlimit:10.43299961;stroke-dasharray:none;stroke-dashoffset:0;stroke-opacity:1"
         word-spacing="normal"
         letter-spacing="normal"
         font-size-adjust="none"
         font-stretch="normal"
         font-weight="normal"
         font-variant="normal"
         font-style="normal"
         stroke-miterlimit="10.433"
         xml:space="preserve"
         transform="matrix(1.0629921,0,0,-1.0629921,-186.02362,789.27165)"
         id="content"><g
           transform="translate(159.92593,90.04233)"
           id="g9673"><ellipse
             transform="matrix(0.94074076,0,0,-0.94074076,348.36508,1011.2831)"
             ry="153.57143"
             rx="220.71428"
             cy="846.64789"
             cx="-218.57141"
             id="path4136-5"
             style="color:#000000;clip-rule:nonzero;display:inline;overflow:visible;visibility:visible;opacity:1;isolation:auto;mix-blend-mode:normal;color-interpolation:sRGB;color-interpolation-filters:linearRGB;solid-color:#000000;solid-opacity:1;fill:url(#linearGradient4160-3);fill-opacity:1;fill-rule:nonzero;stroke:#b38888;stroke-width:4;stroke-linecap:butt;stroke-linejoin:miter;stroke-miterlimit:4;stroke-dasharray:none;stroke-dashoffset:0;stroke-opacity:1;color-rendering:auto;image-rendering:auto;shape-rendering:auto;text-rendering:auto;enable-background:accumulate" /><g
             id="g5644"
             transform="translate(-447.52382,-182.77249)"><path
               style="fill:#000000;stroke-width:0"
               inkscape:connector-curvature="0"
               id="path5342"
               d="m 466.36,415.66 0.11,-0.02 0.13,-0.02 0.14,-0.03 0.16,-0.03 0.17,-0.04 0.18,-0.05 0.18,-0.05 0.2,-0.05 0.21,-0.06 0.21,-0.07 0.21,-0.08 0.22,-0.09 0.22,-0.09 0.22,-0.1 0.22,-0.12 0.22,-0.12 0.22,-0.13 0.21,-0.14 0.2,-0.15 0.2,-0.16 0.19,-0.18 0.18,-0.19 0.17,-0.2 0.16,-0.21 0.14,-0.22 0.07,-0.12 0.06,-0.12 0.06,-0.13 0.05,-0.12 0.05,-0.13 0.05,-0.14 0.04,-0.14 0.03,-0.14 0.03,-0.15 0.03,-0.15 0.02,-0.15 0.01,-0.16 0.01,-0.16 0,-0.17 c 0,-2.54 -1.74,-4.53 -5.63,-4.53 -4.18,0 -5.98,2.84 -6.92,7.07 -0.15,0.65 -0.2,0.85 -0.7,0.85 -0.65,0 -0.65,-0.35 -0.65,-1.25 l 0,-6.57 c 0,-0.85 0,-1.2 0.55,-1.2 0.25,0 0.3,0.05 1.25,1 0.1,0.1 0.1,0.2 0.99,1.14 2.19,-2.09 4.44,-2.14 5.48,-2.14 5.73,0 8.02,3.34 8.02,6.93 0,2.64 -1.49,4.13 -2.09,4.73 -1.64,1.59 -3.59,1.99 -5.68,2.39 -2.79,0.55 -6.12,1.2 -6.12,4.09 0,1.74 1.29,3.78 5.57,3.78 5.48,0 5.73,-4.48 5.83,-6.03 0.05,-0.45 0.5,-0.45 0.6,-0.45 0.65,0 0.65,0.25 0.65,1.2 l 0,5.03 c 0,0.85 0,1.2 -0.55,1.2 -0.25,0 -0.35,0 -1,-0.6 -0.15,-0.2 -0.64,-0.65 -0.84,-0.8 -1.9,1.4 -3.94,1.4 -4.69,1.4 -6.07,0 -7.97,-3.34 -7.97,-6.13 0,-1.74 0.8,-3.14 2.15,-4.23 1.59,-1.3 2.98,-1.6 6.57,-2.3 z" /><path
               style="fill:#000000;stroke-width:0"
               inkscape:connector-curvature="0"
               id="path5344"
               d="m 483.62,425.93 7.12,0 0,1.54 -7.12,0 0,9.17 -1.25,0 c -0.05,-4.09 -1.54,-9.42 -6.42,-9.62 l 0,-1.09 4.23,0 0,-13.75 c 0,-6.13 4.63,-6.73 6.43,-6.73 3.53,0 4.93,3.54 4.93,6.73 l 0,2.84 -1.25,0 0,-2.74 c 0,-3.69 -1.49,-5.58 -3.33,-5.58 -3.34,0 -3.34,4.53 -3.34,5.38 z" /><path
               style="fill:#000000;stroke-width:0"
               inkscape:connector-curvature="0"
               id="path5346"
               d="m 511.59,409.79 0.02,-0.19 0.03,-0.19 0.03,-0.19 0.04,-0.18 0.05,-0.19 0.06,-0.18 0.06,-0.18 0.07,-0.18 0.07,-0.18 0.08,-0.18 0.09,-0.17 0.1,-0.16 0.1,-0.17 0.1,-0.15 0.12,-0.16 0.12,-0.14 0.12,-0.15 0.13,-0.13 0.14,-0.13 0.15,-0.12 0.15,-0.12 0.15,-0.1 0.17,-0.1 0.17,-0.09 0.17,-0.08 0.18,-0.07 0.19,-0.07 0.19,-0.05 0.2,-0.04 0.21,-0.03 0.21,-0.01 0.21,-0.01 c 1.05,0 4.09,0.7 4.09,4.73 l 0,2.79 -1.25,0 0,-2.79 c 0,-2.89 -1.24,-3.18 -1.79,-3.18 -1.64,0 -1.84,2.24 -1.84,2.48 l 0,9.97 c 0,2.09 0,4.03 -1.8,5.88 -1.94,1.94 -4.43,2.74 -6.82,2.74 -4.09,0 -7.52,-2.34 -7.52,-5.63 0,-1.5 0.99,-2.34 2.29,-2.34 1.39,0 2.29,0.99 2.29,2.29 0,0.59 -0.25,2.24 -2.54,2.29 1.35,1.74 3.78,2.29 5.38,2.29 2.44,0 5.28,-1.94 5.28,-6.38 l 0,-1.84 0,-1.04 0,-4.99 c 0,-4.73 -3.59,-6.42 -5.83,-6.42 -2.44,0 -4.48,1.74 -4.48,4.23 0,2.74 2.09,6.88 10.31,7.18 l 0,0 0,1.04 c -2.54,-0.15 -6.03,-0.3 -9.17,-1.79 -3.73,-1.69 -4.98,-4.28 -4.98,-6.48 0,-4.03 4.84,-5.28 7.97,-5.28 3.29,0 5.58,2 6.53,4.34 z" /><path
               style="fill:#000000;stroke-width:0"
               inkscape:connector-curvature="0"
               id="path5348"
               d="m 527.57,424.78 0,15.79 -7.17,-0.55 0,-1.54 c 3.48,0 3.88,-0.35 3.88,-2.79 l 0,-29.69 1.25,0 c 0.04,0.05 0.44,0.75 1.79,3.09 0.75,-1.15 2.84,-3.64 6.52,-3.64 l -0.19,1.1 c -2.25,0 -4.04,1.19 -5.24,3.04 -0.69,1.04 -0.69,1.19 -0.69,2.09 l 0,0 0,10.26 c 0,0.95 0,1 0.55,1.79 1.94,2.79 4.68,3.19 5.88,3.19 2.24,0 4.03,-1.3 5.23,-3.19 1.29,-2.04 1.44,-4.88 1.44,-6.92 0,-1.85 -0.1,-4.83 -1.55,-7.08 -1.04,-1.54 -2.93,-3.18 -5.62,-3.18 l 0.19,-1.1 c 5.93,0 11.11,4.88 11.11,11.31 0,6.33 -4.88,11.26 -10.56,11.26 -3.88,0 -6.03,-2.34 -6.82,-3.24 z" /><path
               style="fill:#000000;stroke-width:0"
               inkscape:connector-curvature="0"
               id="path5350"
               d="m 555.82,428.02 -6.98,-0.55 0,-1.54 c 3.24,0 3.69,-0.31 3.69,-2.75 l 0,-13.39 c 0,-2.25 -0.55,-2.25 -3.88,-2.25 l 0,-1.54 10.65,0 0,1.54 c -3.28,0 -3.48,0.25 -3.48,2.19 z" /><path
               style="fill:#000000;stroke-width:0"
               inkscape:connector-curvature="0"
               id="path5352"
               d="m 556.02,436.68 -0.01,0.15 -0.01,0.15 -0.02,0.14 -0.02,0.13 -0.03,0.14 -0.04,0.13 -0.04,0.13 -0.05,0.12 -0.06,0.12 -0.06,0.11 -0.06,0.11 -0.07,0.11 -0.08,0.1 -0.08,0.1 -0.08,0.09 -0.09,0.09 -0.09,0.09 -0.1,0.07 -0.1,0.08 -0.11,0.07 -0.1,0.06 -0.11,0.06 -0.12,0.06 -0.11,0.05 -0.12,0.04 -0.12,0.04 -0.13,0.03 -0.12,0.03 -0.13,0.02 -0.13,0.01 -0.12,0.01 -0.13,0 c -1.55,0 -2.65,-1.34 -2.65,-2.64 0,-1.34 1.1,-2.64 2.65,-2.64 1.39,0 2.64,1.05 2.64,2.64 z" /><path
               style="fill:#000000;stroke-width:0"
               inkscape:connector-curvature="0"
               id="path5354"
               d="m 569.82,440.57 -7.17,-0.55 0,-1.54 c 3.48,0 3.88,-0.35 3.88,-2.79 l 0,-25.9 c 0,-2.25 -0.55,-2.25 -3.88,-2.25 l 0,-1.54 11.05,0 0,1.54 c -3.34,0 -3.88,0 -3.88,2.25 z" /><path
               style="fill:#000000;stroke-width:0"
               inkscape:connector-curvature="0"
               id="path5356"
               d="m 583.82,428.02 -6.98,-0.55 0,-1.54 c 3.24,0 3.69,-0.31 3.69,-2.75 l 0,-13.39 c 0,-2.25 -0.55,-2.25 -3.88,-2.25 l 0,-1.54 10.65,0 0,1.54 c -3.28,0 -3.48,0.25 -3.48,2.19 z" /><path
               style="fill:#000000;stroke-width:0"
               inkscape:connector-curvature="0"
               id="path5358"
               d="m 584.02,436.68 -0.01,0.15 -0.01,0.15 -0.02,0.14 -0.02,0.13 -0.03,0.14 -0.04,0.13 -0.04,0.13 -0.05,0.12 -0.06,0.12 -0.06,0.11 -0.06,0.11 -0.07,0.11 -0.08,0.1 -0.08,0.1 -0.08,0.09 -0.09,0.09 -0.09,0.09 -0.1,0.07 -0.1,0.08 -0.11,0.07 -0.1,0.06 -0.11,0.06 -0.12,0.06 -0.11,0.05 -0.12,0.04 -0.12,0.04 -0.13,0.03 -0.12,0.03 -0.13,0.02 -0.13,0.01 -0.12,0.01 -0.13,0 c -1.55,0 -2.65,-1.34 -2.65,-2.64 0,-1.34 1.1,-2.64 2.65,-2.64 1.39,0 2.64,1.05 2.64,2.64 z" /><path
               style="fill:#000000;stroke-width:0"
               inkscape:connector-curvature="0"
               id="path5360"
               d="m 599.36,415.66 0.11,-0.02 0.13,-0.02 0.14,-0.03 0.16,-0.03 0.17,-0.04 0.18,-0.05 0.18,-0.05 0.2,-0.05 0.21,-0.06 0.21,-0.07 0.21,-0.08 0.22,-0.09 0.22,-0.09 0.22,-0.1 0.22,-0.12 0.22,-0.12 0.22,-0.13 0.21,-0.14 0.2,-0.15 0.2,-0.16 0.19,-0.18 0.18,-0.19 0.17,-0.2 0.16,-0.21 0.14,-0.22 0.07,-0.12 0.06,-0.12 0.06,-0.13 0.05,-0.12 0.05,-0.13 0.05,-0.14 0.04,-0.14 0.03,-0.14 0.03,-0.15 0.03,-0.15 0.02,-0.15 0.01,-0.16 0.01,-0.16 0,-0.17 c 0,-2.54 -1.74,-4.53 -5.63,-4.53 -4.18,0 -5.98,2.84 -6.92,7.07 -0.15,0.65 -0.2,0.85 -0.7,0.85 -0.64,0 -0.64,-0.35 -0.64,-1.25 l 0,-6.57 c 0,-0.85 0,-1.2 0.54,-1.2 0.25,0 0.3,0.05 1.25,1 0.09,0.1 0.09,0.2 0.99,1.14 2.19,-2.09 4.44,-2.14 5.48,-2.14 5.73,0 8.02,3.34 8.02,6.93 0,2.64 -1.49,4.13 -2.09,4.73 -1.64,1.59 -3.59,1.99 -5.68,2.39 -2.79,0.55 -6.13,1.2 -6.13,4.09 0,1.74 1.3,3.78 5.58,3.78 5.48,0 5.73,-4.48 5.83,-6.03 0.05,-0.45 0.5,-0.45 0.6,-0.45 0.65,0 0.65,0.25 0.65,1.2 l 0,5.03 c 0,0.85 0,1.2 -0.55,1.2 -0.25,0 -0.35,0 -0.99,-0.6 -0.16,-0.2 -0.65,-0.65 -0.85,-0.8 -1.9,1.4 -3.94,1.4 -4.69,1.4 -6.08,0 -7.96,-3.34 -7.96,-6.13 0,-1.74 0.79,-3.14 2.13,-4.23 1.6,-1.3 2.99,-1.6 6.58,-2.3 z" /><path
               style="fill:#000000;stroke-width:0"
               inkscape:connector-curvature="0"
               id="path5362"
               d="m 624.59,409.79 0.02,-0.19 0.03,-0.19 0.03,-0.19 0.04,-0.18 0.05,-0.19 0.06,-0.18 0.06,-0.18 0.07,-0.18 0.07,-0.18 0.08,-0.18 0.09,-0.17 0.1,-0.16 0.1,-0.17 0.1,-0.15 0.12,-0.16 0.12,-0.14 0.12,-0.15 0.13,-0.13 0.14,-0.13 0.15,-0.12 0.15,-0.12 0.15,-0.1 0.17,-0.1 0.17,-0.09 0.17,-0.08 0.18,-0.07 0.19,-0.07 0.19,-0.05 0.2,-0.04 0.21,-0.03 0.21,-0.01 0.21,-0.01 c 1.05,0 4.09,0.7 4.09,4.73 l 0,2.79 -1.25,0 0,-2.79 c 0,-2.89 -1.24,-3.18 -1.79,-3.18 -1.64,0 -1.84,2.24 -1.84,2.48 l 0,9.97 c 0,2.09 0,4.03 -1.8,5.88 -1.94,1.94 -4.43,2.74 -6.82,2.74 -4.09,0 -7.53,-2.34 -7.53,-5.63 0,-1.5 1,-2.34 2.3,-2.34 1.39,0 2.29,0.99 2.29,2.29 0,0.59 -0.25,2.24 -2.54,2.29 1.35,1.74 3.78,2.29 5.38,2.29 2.44,0 5.28,-1.94 5.28,-6.38 l 0,-1.84 0,-1.04 0,-4.99 c 0,-4.73 -3.59,-6.42 -5.83,-6.42 -2.44,0 -4.48,1.74 -4.48,4.23 0,2.74 2.09,6.88 10.31,7.18 l 0,0 0,1.04 c -2.54,-0.15 -6.03,-0.3 -9.17,-1.79 -3.73,-1.69 -4.98,-4.28 -4.98,-6.48 0,-4.03 4.84,-5.28 7.97,-5.28 3.29,0 5.58,2 6.53,4.34 z" /><path
               style="fill:#000000;stroke-width:0"
               inkscape:connector-curvature="0"
               id="path5364"
               d="m 641.62,425.93 7.12,0 0,1.54 -7.12,0 0,9.17 -1.25,0 c -0.05,-4.09 -1.54,-9.42 -6.42,-9.62 l 0,-1.09 4.23,0 0,-13.75 c 0,-6.13 4.63,-6.73 6.42,-6.73 3.55,0 4.94,3.54 4.94,6.73 l 0,2.84 -1.25,0 0,-2.74 c 0,-3.69 -1.49,-5.58 -3.33,-5.58 -3.34,0 -3.34,4.53 -3.34,5.38 z" /><path
               style="fill:#000000;stroke-width:0"
               inkscape:connector-curvature="0"
               id="path5366"
               d="m 661.82,428.02 -6.98,-0.55 0,-1.54 c 3.24,0 3.69,-0.31 3.69,-2.75 l 0,-13.39 c 0,-2.25 -0.55,-2.25 -3.88,-2.25 l 0,-1.54 10.65,0 0,1.54 c -3.28,0 -3.48,0.25 -3.48,2.19 z" /><path
               style="fill:#000000;stroke-width:0"
               inkscape:connector-curvature="0"
               id="path5368"
               d="m 662.02,436.68 -0.01,0.15 -0.01,0.15 -0.02,0.14 -0.02,0.13 -0.03,0.14 -0.04,0.13 -0.04,0.13 -0.05,0.12 -0.06,0.12 -0.06,0.11 -0.06,0.11 -0.07,0.11 -0.08,0.1 -0.08,0.1 -0.08,0.09 -0.09,0.09 -0.09,0.09 -0.1,0.07 -0.1,0.08 -0.11,0.07 -0.1,0.06 -0.11,0.06 -0.12,0.06 -0.11,0.05 -0.12,0.04 -0.12,0.04 -0.13,0.03 -0.12,0.03 -0.13,0.02 -0.13,0.01 -0.12,0.01 -0.13,0 c -1.55,0 -2.65,-1.34 -2.65,-2.64 0,-1.34 1.1,-2.64 2.65,-2.64 1.39,0 2.64,1.05 2.64,2.64 z" /><path
               style="fill:#000000;stroke-width:0"
               inkscape:connector-curvature="0"
               id="path5370"
               d="m 689.46,416.66 -0.01,0.59 -0.05,0.59 -0.07,0.58 -0.09,0.57 -0.13,0.56 -0.15,0.55 -0.17,0.54 -0.2,0.53 -0.22,0.52 -0.25,0.5 -0.26,0.49 -0.29,0.47 -0.31,0.46 -0.33,0.44 -0.35,0.42 -0.36,0.41 -0.39,0.39 -0.4,0.36 -0.41,0.35 -0.44,0.33 -0.44,0.3 -0.46,0.29 -0.48,0.26 -0.48,0.23 -0.5,0.21 -0.51,0.19 -0.52,0.16 -0.53,0.13 -0.54,0.1 -0.55,0.08 -0.56,0.04 -0.56,0.02 -0.05,-1.1 c 2.19,0 4.34,-1.1 5.63,-3.24 1.3,-2.14 1.3,-5.03 1.3,-6.92 0,-1.79 0,-4.49 -1.1,-6.68 -1.09,-2.24 -3.28,-3.68 -5.78,-3.68 l 0,0 c -2.14,0 -4.33,1.04 -5.68,3.34 -1.24,2.19 -1.24,5.23 -1.24,7.02 0,1.94 0,4.63 1.2,6.82 1.34,2.3 3.68,3.34 5.67,3.34 l 0.05,1.1 c -6.22,0 -11.05,-5.43 -11.05,-11.66 0,-6.43 5.17,-11.21 11,-11.21 6.03,0 11.06,4.88 11.06,11.21 z" /><path
               style="fill:#000000;stroke-width:0"
               inkscape:connector-curvature="0"
               id="path5372"
               d="m 696.48,423.14 0,-13.35 c 0,-2.25 -0.55,-2.25 -3.89,-2.25 l 0,-1.54 11.21,0 0,1.54 c -3.33,0 -3.88,0 -3.88,2.25 l 0,9.16 c 0,5.18 3.53,7.97 6.72,7.97 3.14,0 3.69,-2.69 3.69,-5.53 l 0,-11.6 c 0,-2.25 -0.55,-2.25 -3.89,-2.25 l 0,-1.54 11.21,0 0,1.54 c -2.59,0 -3.84,0 -3.88,1.5 l 0,9.51 c 0,4.29 0,5.83 -1.55,7.63 -0.7,0.84 -2.34,1.84 -5.23,1.84 -3.64,0 -5.98,-2.14 -7.37,-5.23 l 0,5.23 -7.03,-0.55 0,-1.54 c 3.49,0 3.89,-0.35 3.89,-2.79 z" /></g><g
             id="g5662"
             transform="translate(-689.42859,-236.52911)"><path
               style="fill:#000000;stroke-width:0"
               inkscape:connector-curvature="0"
               id="path5374"
               d="m 741.48,423.14 0,-13.35 c 0,-2.25 -0.55,-2.25 -3.89,-2.25 l 0,-1.54 11.21,0 0,1.54 c -3.33,0 -3.88,0 -3.88,2.25 l 0,9.16 c 0,5.18 3.53,7.97 6.72,7.97 3.14,0 3.69,-2.69 3.69,-5.53 l 0,-11.6 c 0,-2.25 -0.55,-2.25 -3.89,-2.25 l 0,-1.54 11.21,0 0,1.54 c -3.34,0 -3.88,0 -3.88,2.25 l 0,9.16 c 0,5.18 3.53,7.97 6.72,7.97 3.14,0 3.69,-2.69 3.69,-5.53 l 0,-11.6 c 0,-2.25 -0.55,-2.25 -3.89,-2.25 l 0,-1.54 11.21,0 0,1.54 c -2.59,0 -3.84,0 -3.89,1.5 l 0,9.51 c 0,4.29 0,5.83 -1.54,7.63 -0.7,0.84 -2.34,1.84 -5.23,1.84 -4.19,0 -6.38,-2.99 -7.23,-4.88 -0.69,4.33 -4.38,4.88 -6.62,4.88 -3.64,0 -5.98,-2.14 -7.37,-5.23 l 0,5.23 -7.03,-0.55 0,-1.54 c 3.49,0 3.89,-0.35 3.89,-2.79 z" /><path
               style="fill:#000000;stroke-width:0"
               inkscape:connector-curvature="0"
               id="path5376"
               d="m 800.46,416.66 -0.01,0.59 -0.05,0.59 -0.07,0.58 -0.09,0.57 -0.13,0.56 -0.15,0.55 -0.17,0.54 -0.2,0.53 -0.22,0.52 -0.25,0.5 -0.26,0.49 -0.29,0.47 -0.31,0.46 -0.33,0.44 -0.35,0.42 -0.36,0.41 -0.39,0.39 -0.4,0.36 -0.41,0.35 -0.44,0.33 -0.44,0.3 -0.46,0.29 -0.48,0.26 -0.48,0.23 -0.5,0.21 -0.51,0.19 -0.52,0.16 -0.53,0.13 -0.54,0.1 -0.55,0.08 -0.56,0.04 -0.56,0.02 -0.05,-1.1 c 2.19,0 4.34,-1.1 5.63,-3.24 1.3,-2.14 1.3,-5.03 1.3,-6.92 0,-1.79 0,-4.49 -1.1,-6.68 -1.09,-2.24 -3.28,-3.68 -5.78,-3.68 l 0,0 c -2.14,0 -4.33,1.04 -5.68,3.34 -1.24,2.19 -1.24,5.23 -1.24,7.02 0,1.94 0,4.63 1.2,6.82 1.34,2.3 3.68,3.34 5.67,3.34 l 0.05,1.1 c -6.22,0 -11.05,-5.43 -11.05,-11.66 0,-6.43 5.17,-11.21 11,-11.21 6.03,0 11.06,4.88 11.06,11.21 z" /><path
               style="fill:#000000;stroke-width:0"
               inkscape:connector-curvature="0"
               id="path5378"
               d="m 807.48,423.14 0,-13.35 c 0,-2.25 -0.55,-2.25 -3.89,-2.25 l 0,-1.54 11.21,0 0,1.54 c -3.33,0 -3.88,0 -3.88,2.25 l 0,9.16 c 0,5.18 3.53,7.97 6.72,7.97 3.14,0 3.69,-2.69 3.69,-5.53 l 0,-11.6 c 0,-2.25 -0.55,-2.25 -3.89,-2.25 l 0,-1.54 11.21,0 0,1.54 c -2.59,0 -3.84,0 -3.88,1.5 l 0,9.51 c 0,4.29 0,5.83 -1.55,7.63 -0.7,0.84 -2.34,1.84 -5.23,1.84 -3.64,0 -5.98,-2.14 -7.37,-5.23 l 0,5.23 -7.03,-0.55 0,-1.54 c 3.49,0 3.89,-0.35 3.89,-2.79 z" /><path
               style="fill:#000000;stroke-width:0"
               inkscape:connector-curvature="0"
               id="path5380"
               d="m 853.46,416.66 -0.01,0.59 -0.05,0.59 -0.07,0.58 -0.09,0.57 -0.13,0.56 -0.15,0.55 -0.17,0.54 -0.2,0.53 -0.22,0.52 -0.25,0.5 -0.26,0.49 -0.29,0.47 -0.31,0.46 -0.33,0.44 -0.35,0.42 -0.36,0.41 -0.39,0.39 -0.4,0.36 -0.41,0.35 -0.44,0.33 -0.44,0.3 -0.46,0.29 -0.48,0.26 -0.48,0.23 -0.5,0.21 -0.51,0.19 -0.52,0.16 -0.53,0.13 -0.54,0.1 -0.55,0.08 -0.56,0.04 -0.56,0.02 -0.05,-1.1 c 2.19,0 4.34,-1.1 5.63,-3.24 1.3,-2.14 1.3,-5.03 1.3,-6.92 0,-1.79 0,-4.49 -1.1,-6.68 -1.09,-2.24 -3.28,-3.68 -5.78,-3.68 l 0,0 c -2.14,0 -4.33,1.04 -5.68,3.34 -1.24,2.19 -1.24,5.23 -1.24,7.02 0,1.94 0,4.63 1.2,6.82 1.34,2.3 3.68,3.34 5.67,3.34 l 0.05,1.1 c -6.22,0 -11.05,-5.43 -11.05,-11.66 0,-6.43 5.17,-11.21 11,-11.21 6.03,0 11.06,4.88 11.06,11.21 z" /><path
               style="fill:#000000;stroke-width:0"
               inkscape:connector-curvature="0"
               id="path5382"
               d="m 863.82,428.02 -6.98,-0.55 0,-1.54 c 3.24,0 3.69,-0.31 3.69,-2.75 l 0,-13.39 c 0,-2.25 -0.55,-2.25 -3.88,-2.25 l 0,-1.54 10.65,0 0,1.54 c -3.28,0 -3.48,0.25 -3.48,2.19 z" /><path
               style="fill:#000000;stroke-width:0"
               inkscape:connector-curvature="0"
               id="path5384"
               d="m 864.02,436.68 -0.01,0.15 -0.01,0.15 -0.02,0.14 -0.02,0.13 -0.03,0.14 -0.04,0.13 -0.04,0.13 -0.05,0.12 -0.06,0.12 -0.06,0.11 -0.06,0.11 -0.07,0.11 -0.08,0.1 -0.08,0.1 -0.08,0.09 -0.09,0.09 -0.09,0.09 -0.1,0.07 -0.1,0.08 -0.11,0.07 -0.1,0.06 -0.11,0.06 -0.12,0.06 -0.11,0.05 -0.12,0.04 -0.12,0.04 -0.13,0.03 -0.12,0.03 -0.13,0.02 -0.13,0.01 -0.12,0.01 -0.13,0 c -1.55,0 -2.65,-1.34 -2.65,-2.64 0,-1.34 1.1,-2.64 2.65,-2.64 1.39,0 2.64,1.05 2.64,2.64 z" /><path
               style="fill:#000000;stroke-width:0"
               inkscape:connector-curvature="0"
               id="path5386"
               d="m 887.93,408.74 0,-3.29 7.32,0.55 0,1.54 c -3.48,0 -3.88,0.35 -3.88,2.79 l 0,30.24 -7.18,-0.55 0,-1.54 c 3.49,0 3.89,-0.35 3.89,-2.79 l 0,-10.76 c -1.45,1.79 -3.59,3.09 -6.28,3.09 l 0.2,-1.1 c 1.75,0 3.84,-0.74 5.38,-2.99 0.55,-0.84 0.55,-0.95 0.55,-1.84 l 0,0 0,-10.21 c 0,-0.9 0,-1 -0.55,-1.84 -1.49,-2.4 -3.73,-3.49 -5.88,-3.49 -2.24,0 -4.03,1.29 -5.23,3.18 -1.29,2.05 -1.44,4.89 -1.44,6.93 0,1.84 0.1,4.83 1.54,7.07 1.05,1.55 2.94,3.19 5.63,3.19 l -0.2,1.1 c -5.87,0 -11.1,-4.88 -11.1,-11.31 0,-6.33 4.87,-11.26 10.55,-11.26 3.19,0 5.43,1.69 6.68,3.29 z" /><path
               style="fill:#000000;stroke-width:0"
               inkscape:connector-curvature="0"
               id="path5388"
               d="m 906.36,415.66 0.11,-0.02 0.13,-0.02 0.14,-0.03 0.16,-0.03 0.17,-0.04 0.18,-0.05 0.18,-0.05 0.2,-0.05 0.21,-0.06 0.21,-0.07 0.21,-0.08 0.22,-0.09 0.22,-0.09 0.22,-0.1 0.22,-0.12 0.22,-0.12 0.22,-0.13 0.21,-0.14 0.2,-0.15 0.2,-0.16 0.19,-0.18 0.18,-0.19 0.17,-0.2 0.16,-0.21 0.14,-0.22 0.07,-0.12 0.06,-0.12 0.06,-0.13 0.05,-0.12 0.05,-0.13 0.05,-0.14 0.04,-0.14 0.03,-0.14 0.03,-0.15 0.03,-0.15 0.02,-0.15 0.01,-0.16 0.01,-0.16 0,-0.17 c 0,-2.54 -1.74,-4.53 -5.63,-4.53 -4.18,0 -5.98,2.84 -6.92,7.07 -0.15,0.65 -0.2,0.85 -0.7,0.85 -0.64,0 -0.64,-0.35 -0.64,-1.25 l 0,-6.57 c 0,-0.85 0,-1.2 0.54,-1.2 0.25,0 0.3,0.05 1.25,1 0.09,0.1 0.09,0.2 0.99,1.14 2.19,-2.09 4.44,-2.14 5.48,-2.14 5.73,0 8.02,3.34 8.02,6.93 0,2.64 -1.49,4.13 -2.09,4.73 -1.64,1.59 -3.59,1.99 -5.68,2.39 -2.79,0.55 -6.13,1.2 -6.13,4.09 0,1.74 1.3,3.78 5.58,3.78 5.48,0 5.73,-4.48 5.83,-6.03 0.05,-0.45 0.5,-0.45 0.6,-0.45 0.65,0 0.65,0.25 0.65,1.2 l 0,5.03 c 0,0.85 0,1.2 -0.55,1.2 -0.25,0 -0.35,0 -0.99,-0.6 -0.16,-0.2 -0.65,-0.65 -0.85,-0.8 -1.9,1.4 -3.94,1.4 -4.69,1.4 -6.08,0 -7.96,-3.34 -7.96,-6.13 0,-1.74 0.79,-3.14 2.13,-4.23 1.6,-1.3 2.99,-1.6 6.58,-2.3 z" /></g></g></g>    </g>
    <g
       transform="translate(-175.71429,-85.714286)"
       id="g9702">
      <ellipse
         ry="153.57143"
         rx="220.71428"
         cy="840.93359"
         cx="967.14294"
         id="path4136-5-2"
         style="color:#000000;clip-rule:nonzero;display:inline;overflow:visible;visibility:visible;opacity:1;isolation:auto;mix-blend-mode:normal;color-interpolation:sRGB;color-interpolation-filters:linearRGB;solid-color:#000000;solid-opacity:1;fill:url(#linearGradient4160-3-3);fill-opacity:1;fill-rule:nonzero;stroke:#b38888;stroke-width:4;stroke-linecap:butt;stroke-linejoin:miter;stroke-miterlimit:4;stroke-dasharray:none;stroke-dashoffset:0;stroke-opacity:1;color-rendering:auto;image-rendering:auto;shape-rendering:auto;text-rendering:auto;enable-background:accumulate" />
      <g
         id="g5540"
         transform="translate(548.57143,495.71429)">
        <g
           word-spacing="normal"
           letter-spacing="normal"
           font-size-adjust="none"
           font-stretch="normal"
           font-weight="normal"
           font-variant="normal"
           font-style="normal"
           stroke-miterlimit="10.433"
           xml:space="preserve"
           transform="matrix(1.0629921,0,0,-1.0629921,-186.02362,789.27165)"
           id="g5542"
           style="font-style:normal;font-variant:normal;font-weight:normal;font-stretch:normal;letter-spacing:normal;word-spacing:normal;text-anchor:start;fill:none;fill-opacity:1;fill-rule:evenodd;stroke:#000000;stroke-linecap:butt;stroke-linejoin:miter;stroke-miterlimit:10.43299961;stroke-dasharray:none;stroke-dashoffset:0;stroke-opacity:1"><path
             id="path5544"
             d="m 461.83,416.86 0,0.38 0.01,0.36 0.01,0.36 0.02,0.35 0.03,0.34 0.03,0.34 0.04,0.32 0.04,0.32 0.05,0.31 0.05,0.3 0.05,0.29 0.06,0.29 0.14,0.54 0.15,0.52 0.16,0.49 0.19,0.46 0.19,0.43 0.21,0.4 0.22,0.37 0.23,0.35 0.24,0.33 0.25,0.3 0.26,0.28 0.26,0.25 0.27,0.23 0.28,0.21 0.27,0.19 0.28,0.17 0.29,0.15 0.28,0.13 0.28,0.11 0.28,0.09 0.28,0.08 0.28,0.06 0.27,0.05 0.26,0.03 0.26,0.02 0.25,0.01 c 0.45,0 3.59,-0.05 5.33,-1.84 -2.04,-0.15 -2.34,-1.64 -2.34,-2.29 0,-1.3 0.9,-2.3 2.29,-2.3 1.3,0 2.29,0.85 2.29,2.34 0,3.4 -3.78,5.34 -7.62,5.34 -6.22,0 -10.8,-5.38 -10.8,-11.56 0,-6.38 4.92,-11.31 10.7,-11.31 6.68,0 8.27,5.98 8.27,6.48 0,0.5 -0.49,0.5 -0.65,0.5 -0.44,0 -0.54,-0.2 -0.64,-0.5 -1.45,-4.63 -4.68,-5.23 -6.53,-5.23 -2.64,0 -7.02,2.14 -7.02,10.16 z"
             inkscape:connector-curvature="0"
             style="fill:#000000;stroke-width:0" /><path
             id="path5546"
             d="m 501.46,416.66 -0.01,0.59 -0.05,0.59 -0.07,0.58 -0.09,0.57 -0.13,0.56 -0.15,0.55 -0.17,0.54 -0.2,0.53 -0.22,0.52 -0.25,0.5 -0.26,0.49 -0.29,0.47 -0.31,0.46 -0.33,0.44 -0.35,0.42 -0.36,0.41 -0.39,0.39 -0.4,0.36 -0.41,0.35 -0.44,0.33 -0.44,0.3 -0.46,0.29 -0.48,0.26 -0.48,0.23 -0.5,0.21 -0.51,0.19 -0.52,0.16 -0.53,0.13 -0.54,0.1 -0.55,0.08 -0.56,0.04 -0.56,0.02 -0.05,-1.1 c 2.19,0 4.34,-1.1 5.63,-3.24 1.3,-2.14 1.3,-5.03 1.3,-6.92 0,-1.79 0,-4.49 -1.1,-6.68 -1.09,-2.24 -3.28,-3.68 -5.78,-3.68 l 0,0 c -2.14,0 -4.33,1.04 -5.68,3.34 -1.24,2.19 -1.24,5.23 -1.24,7.02 0,1.94 0,4.63 1.2,6.82 1.34,2.3 3.68,3.34 5.67,3.34 l 0.05,1.1 c -6.22,0 -11.06,-5.43 -11.06,-11.66 0,-6.43 5.18,-11.21 11.01,-11.21 6.03,0 11.06,4.88 11.06,11.21 z"
             inkscape:connector-curvature="0"
             style="fill:#000000;stroke-width:0" /><path
             id="path5548"
             d="m 513.36,415.66 0.11,-0.02 0.13,-0.02 0.14,-0.03 0.16,-0.03 0.17,-0.04 0.18,-0.05 0.18,-0.05 0.2,-0.05 0.21,-0.06 0.21,-0.07 0.21,-0.08 0.22,-0.09 0.22,-0.09 0.22,-0.1 0.22,-0.12 0.22,-0.12 0.22,-0.13 0.21,-0.14 0.2,-0.15 0.2,-0.16 0.19,-0.18 0.18,-0.19 0.17,-0.2 0.16,-0.21 0.14,-0.22 0.07,-0.12 0.06,-0.12 0.06,-0.13 0.05,-0.12 0.05,-0.13 0.05,-0.14 0.04,-0.14 0.03,-0.14 0.03,-0.15 0.03,-0.15 0.02,-0.15 0.01,-0.16 0.01,-0.16 0,-0.17 c 0,-2.54 -1.74,-4.53 -5.63,-4.53 -4.18,0 -5.98,2.84 -6.92,7.07 -0.15,0.65 -0.2,0.85 -0.7,0.85 -0.65,0 -0.65,-0.35 -0.65,-1.25 l 0,-6.57 c 0,-0.85 0,-1.2 0.55,-1.2 0.25,0 0.3,0.05 1.25,1 0.1,0.1 0.1,0.2 0.99,1.14 2.19,-2.09 4.44,-2.14 5.48,-2.14 5.73,0 8.02,3.34 8.02,6.93 0,2.64 -1.49,4.13 -2.09,4.73 -1.64,1.59 -3.59,1.99 -5.68,2.39 -2.79,0.55 -6.12,1.2 -6.12,4.09 0,1.74 1.29,3.78 5.57,3.78 5.48,0 5.73,-4.48 5.83,-6.03 0.05,-0.45 0.5,-0.45 0.6,-0.45 0.65,0 0.65,0.25 0.65,1.2 l 0,5.03 c 0,0.85 0,1.2 -0.55,1.2 -0.25,0 -0.35,0 -0.99,-0.6 -0.16,-0.2 -0.65,-0.65 -0.85,-0.8 -1.9,1.4 -3.94,1.4 -4.69,1.4 -6.07,0 -7.97,-3.34 -7.97,-6.13 0,-1.74 0.8,-3.14 2.15,-4.23 1.59,-1.3 2.98,-1.6 6.57,-2.3 z"
             inkscape:connector-curvature="0"
             style="fill:#000000;stroke-width:0" /><path
             id="path5550"
             d="m 530.62,425.93 7.12,0 0,1.54 -7.12,0 0,9.17 -1.25,0 c -0.05,-4.09 -1.54,-9.42 -6.42,-9.62 l 0,-1.09 4.23,0 0,-13.75 c 0,-6.13 4.63,-6.73 6.42,-6.73 3.55,0 4.94,3.54 4.94,6.73 l 0,2.84 -1.25,0 0,-2.74 c 0,-3.69 -1.49,-5.58 -3.33,-5.58 -3.34,0 -3.34,4.53 -3.34,5.38 z"
             inkscape:connector-curvature="0"
             style="fill:#000000;stroke-width:0" /><polygon
             id="polygon5552"
             points="555.75,415.32 555.75,418.2 542.55,418.2 542.55,415.32 "
             style="fill:#000000;stroke-width:0" /><path
             id="path5554"
             d="m 570,438.93 -0.02,0.05 -0.02,0.05 -0.02,0.04 -0.02,0.05 -0.03,0.09 -0.04,0.08 -0.04,0.07 -0.03,0.07 -0.04,0.07 -0.04,0.06 -0.03,0.06 -0.04,0.05 -0.03,0.04 -0.04,0.05 -0.04,0.03 -0.04,0.04 -0.04,0.03 -0.04,0.03 -0.05,0.02 -0.05,0.02 -0.05,0.02 -0.05,0.02 -0.06,0.01 -0.06,0.01 -0.06,0.01 -0.07,0.01 -0.07,0 -0.07,0.01 -0.08,0 -0.08,0 -0.09,0 -0.09,0 -0.1,0 -0.11,0 -8.42,0 0,-1.54 1.2,0 c 3.84,0 3.93,-0.55 3.93,-2.34 l 0,-24.91 c 0,-1.34 0,-3.69 -5.13,-3.69 l 0,-1.54 11.66,0 0,1.54 c -5.13,0 -5.13,2.35 -5.13,3.69 l 0,26.85 0.05,0 12,-30.98 c 0.25,-0.65 0.5,-1.1 1,-1.1 0.55,0 0.7,0.4 0.9,0.95 l 12.25,31.53 0.05,0 0,-28.59 c 0,-1.8 -0.1,-2.35 -3.94,-2.35 l -1.19,0 0,-1.54 14.29,0 0,1.54 -1.19,0 c -3.84,0 -3.93,0.55 -3.93,2.35 l 0,26.25 c 0,1.79 0.09,2.34 3.93,2.34 l 1.19,0 0,1.54 -8.41,0 c -1.3,0 -1.3,-0.05 -1.65,-0.95 l -10.91,-28.04 z"
             inkscape:connector-curvature="0"
             style="fill:#000000;stroke-width:0" /><path
             id="path5556"
             d="m 621.39,425.33 -6.38,1.54 c -3.09,0.75 -5.03,3.44 -5.03,6.33 0,3.48 2.69,6.52 6.57,6.52 8.32,0 9.42,-8.17 9.72,-10.41 0.05,-0.3 0.05,-0.6 0.59,-0.6 0.65,0 0.65,0.25 0.65,1.2 l 0,10.01 c 0,0.85 0,1.2 -0.54,1.2 -0.36,0 -0.4,-0.05 -0.75,-0.65 l -1.75,-2.84 c -1.49,1.44 -3.53,3.49 -7.97,3.49 -5.53,0 -9.71,-4.39 -9.71,-9.67 0,-4.13 2.64,-7.77 6.53,-9.11 0.54,-0.2 3.08,-0.8 6.57,-1.64 1.34,-0.35 2.84,-0.7 4.23,-2.54 1.05,-1.3 1.55,-2.95 1.55,-4.59 0,-3.53 -2.49,-7.12 -6.68,-7.12 -1.44,0 -5.23,0.25 -7.87,2.69 -2.89,2.69 -3.03,5.88 -3.09,7.67 -0.05,0.5 -0.44,0.5 -0.59,0.5 -0.65,0 -0.65,-0.35 -0.65,-1.25 l 0,-9.96 c 0,-0.85 0,-1.2 0.55,-1.2 0.35,0 0.39,0.1 0.75,0.65 0,0.05 0.14,0.2 1.79,2.84 1.54,-1.69 4.73,-3.49 9.16,-3.49 5.83,0 9.81,4.89 9.81,10.37 0,4.98 -3.28,9.06 -7.46,10.06 z"
             inkscape:connector-curvature="0"
             style="fill:#000000;stroke-width:0" /><path
             id="path5558"
             d="m 667.91,422.89 -0.02,0.94 -0.06,0.94 -0.11,0.91 -0.15,0.91 -0.18,0.88 -0.23,0.87 -0.26,0.85 -0.3,0.83 -0.34,0.81 -0.37,0.79 -0.4,0.76 -0.43,0.74 -0.47,0.71 -0.49,0.69 -0.53,0.66 -0.55,0.63 -0.58,0.6 -0.6,0.57 -0.63,0.54 -0.65,0.51 -0.67,0.47 -0.7,0.44 -0.71,0.39 -0.74,0.37 -0.75,0.32 -0.76,0.29 -0.79,0.24 -0.8,0.2 -0.81,0.16 -0.82,0.11 -0.84,0.07 -0.84,0.03 0,-1.25 c 4.33,0 11.45,-3.53 11.45,-16.28 0,-13.21 -6.82,-17.39 -11.4,-17.39 l 0,0 c -4.79,0 -11.46,4.38 -11.46,17.39 0,12.89 7.27,16.28 11.41,16.28 l 0,1.25 c -8.92,0 -16.54,-7.97 -16.54,-18.23 0,-10.21 7.67,-17.99 16.54,-17.99 9.07,0 16.58,7.92 16.58,17.99 z"
             inkscape:connector-curvature="0"
             style="fill:#000000;stroke-width:0" /></g>      </g>
    </g>
    <g
       id="g9819"
       transform="matrix(1.4824555,0,0,1.4824555,-411.64518,-232.88362)">
      <g
         word-spacing="normal"
         letter-spacing="normal"
         font-size-adjust="none"
         font-stretch="normal"
         font-weight="normal"
         font-variant="normal"
         font-style="normal"
         stroke-miterlimit="10.433"
         xml:space="preserve"
         transform="matrix(1.0291836,0,0,-1.0291836,-180.10713,964.07146)"
         id="g9821"
         style="font-style:normal;font-variant:normal;font-weight:normal;font-stretch:normal;letter-spacing:normal;word-spacing:normal;text-anchor:start;fill:none;fill-opacity:1;fill-rule:evenodd;stroke:#000000;stroke-linecap:butt;stroke-linejoin:miter;stroke-miterlimit:10.43299961;stroke-dasharray:none;stroke-dashoffset:0;stroke-opacity:1"><path
           id="path9823"
           d="m 461.53,417.51 0.05,1.04 c 0.3,7.43 4.48,8.67 6.18,8.67 5.13,0 5.63,-6.72 5.63,-8.67 l -11.81,0 -0.05,-1.04 13.9,0 c 1.09,0 1.24,0 1.24,1.04 0,4.93 -2.69,9.77 -8.91,9.77 -5.78,0 -10.37,-5.14 -10.37,-11.36 0,-6.67 5.23,-11.51 10.97,-11.51 6.07,0 8.31,5.53 8.31,6.48 0,0.5 -0.4,0.6 -0.65,0.6 -0.44,0 -0.54,-0.3 -0.64,-0.7 -1.75,-5.13 -6.23,-5.13 -6.73,-5.13 -2.49,0 -4.48,1.49 -5.63,3.34 -1.49,2.39 -1.49,5.67 -1.49,7.47 z"
           inkscape:connector-curvature="0"
           style="fill:#000000;stroke-width:0" /><path
           id="path9825"
           d="m 500.32,425.93 5.72,0 0,1.54 -5.87,0 0,5.78 c 0,4.43 2.39,6.77 4.63,6.77 0.15,0 0.9,0 1.64,-0.35 -0.6,-0.2 -1.49,-0.84 -1.49,-2.09 0,-1.14 0.8,-2.14 2.14,-2.14 1.45,0 2.19,1 2.19,2.19 0,1.8 -1.74,3.49 -4.53,3.49 -2.94,0 -5.13,-1.89 -5.38,-2.09 -1.44,1.84 -4.23,2.09 -5.58,2.09 l -0.05,-1.1 c 2.44,0 3.84,-0.95 3.88,-0.95 l 0,-0.04 c -0.84,-0.1 -1.83,-0.75 -1.83,-2.15 0,-0.29 0.04,-1.54 1.39,-1.99 -0.15,-0.65 -0.15,-1.09 -0.15,-1.69 l 0,-5.73 -10.61,0 0,5.63 c 0,4.83 4.08,6.92 7.32,6.92 l 0.05,1.1 c -4.73,0 -10.51,-2.59 -10.51,-7.97 l 0,-5.68 -3.94,0 0,-1.54 3.94,0 0,-16.14 c 0,-2.25 -0.55,-2.25 -3.89,-2.25 l 0,-1.54 11.06,0 0,1.54 c -3.33,0 -3.88,0 -3.88,2.25 l 0,16.14 10.46,0 0,-16.14 c 0,-2.25 -0.55,-2.25 -3.89,-2.25 l 0,-1.54 12.01,0 0,1.54 -1.05,0 c -3.69,0 -3.78,0.55 -3.78,2.35 z"
           inkscape:connector-curvature="0"
           style="fill:#000000;stroke-width:0" /><path
           id="path9827"
           d="m 512.53,417.51 0.05,1.04 c 0.3,7.43 4.48,8.67 6.18,8.67 5.13,0 5.63,-6.72 5.63,-8.67 l -11.81,0 -0.05,-1.04 13.9,0 c 1.09,0 1.24,0 1.24,1.04 0,4.93 -2.69,9.77 -8.91,9.77 -5.78,0 -10.37,-5.14 -10.37,-11.36 0,-6.67 5.23,-11.51 10.96,-11.51 6.08,0 8.32,5.53 8.32,6.48 0,0.5 -0.4,0.6 -0.65,0.6 -0.44,0 -0.54,-0.3 -0.64,-0.7 -1.75,-5.13 -6.23,-5.13 -6.73,-5.13 -2.49,0 -4.48,1.49 -5.63,3.34 -1.49,2.39 -1.49,5.67 -1.49,7.47 z"
           inkscape:connector-curvature="0"
           style="fill:#000000;stroke-width:0" /><path
           id="path9829"
           d="m 534.83,416.86 0,0.38 0.01,0.36 0.01,0.36 0.02,0.35 0.03,0.34 0.03,0.34 0.04,0.32 0.04,0.32 0.05,0.31 0.05,0.3 0.05,0.29 0.06,0.29 0.14,0.54 0.15,0.52 0.16,0.49 0.19,0.46 0.19,0.43 0.21,0.4 0.22,0.37 0.23,0.35 0.24,0.33 0.25,0.3 0.26,0.28 0.26,0.25 0.27,0.23 0.28,0.21 0.27,0.19 0.28,0.17 0.29,0.15 0.28,0.13 0.28,0.11 0.28,0.09 0.28,0.08 0.28,0.06 0.27,0.05 0.26,0.03 0.26,0.02 0.25,0.01 c 0.45,0 3.59,-0.05 5.33,-1.84 -2.04,-0.15 -2.34,-1.64 -2.34,-2.29 0,-1.3 0.9,-2.3 2.29,-2.3 1.3,0 2.29,0.85 2.29,2.34 0,3.4 -3.78,5.34 -7.62,5.34 -6.22,0 -10.8,-5.38 -10.8,-11.56 0,-6.38 4.92,-11.31 10.7,-11.31 6.68,0 8.27,5.98 8.27,6.48 0,0.5 -0.49,0.5 -0.65,0.5 -0.44,0 -0.54,-0.2 -0.64,-0.5 -1.45,-4.63 -4.68,-5.23 -6.53,-5.23 -2.64,0 -7.02,2.14 -7.02,10.16 z"
           inkscape:connector-curvature="0"
           style="fill:#000000;stroke-width:0" /><path
           id="path9831"
           d="m 559.62,425.93 7.12,0 0,1.54 -7.12,0 0,9.17 -1.25,0 c -0.05,-4.09 -1.54,-9.42 -6.42,-9.62 l 0,-1.09 4.23,0 0,-13.75 c 0,-6.13 4.63,-6.73 6.42,-6.73 3.55,0 4.94,3.54 4.94,6.73 l 0,2.84 -1.25,0 0,-2.74 c 0,-3.69 -1.49,-5.58 -3.33,-5.58 -3.34,0 -3.34,4.53 -3.34,5.38 z"
           inkscape:connector-curvature="0"
           style="fill:#000000;stroke-width:0" /><path
           id="path9833"
           d="m 578.82,428.02 -6.98,-0.55 0,-1.54 c 3.24,0 3.69,-0.31 3.69,-2.75 l 0,-13.39 c 0,-2.25 -0.55,-2.25 -3.88,-2.25 l 0,-1.54 10.65,0 0,1.54 c -3.28,0 -3.48,0.25 -3.48,2.19 z"
           inkscape:connector-curvature="0"
           style="fill:#000000;stroke-width:0" /><path
           id="path9835"
           d="m 579.02,436.68 -0.01,0.15 -0.01,0.15 -0.02,0.14 -0.02,0.13 -0.03,0.14 -0.04,0.13 -0.04,0.13 -0.05,0.12 -0.06,0.12 -0.06,0.11 -0.06,0.11 -0.07,0.11 -0.08,0.1 -0.08,0.1 -0.08,0.09 -0.09,0.09 -0.09,0.09 -0.1,0.07 -0.1,0.08 -0.11,0.07 -0.1,0.06 -0.11,0.06 -0.12,0.06 -0.11,0.05 -0.12,0.04 -0.12,0.04 -0.13,0.03 -0.12,0.03 -0.13,0.02 -0.13,0.01 -0.12,0.01 -0.13,0 c -1.55,0 -2.65,-1.34 -2.65,-2.64 0,-1.34 1.1,-2.64 2.65,-2.64 1.39,0 2.64,1.05 2.64,2.64 z"
           inkscape:connector-curvature="0"
           style="fill:#000000;stroke-width:0" /><path
           id="path9837"
           d="m 604.72,422.59 0.05,0.11 0.04,0.11 0.05,0.12 0.05,0.13 0.06,0.13 0.06,0.13 0.07,0.13 0.07,0.14 0.07,0.13 0.08,0.14 0.09,0.14 0.09,0.13 0.1,0.14 0.11,0.13 0.12,0.14 0.12,0.13 0.13,0.12 0.14,0.13 0.15,0.12 0.16,0.11 0.17,0.11 0.18,0.1 0.18,0.1 0.2,0.08 0.22,0.08 0.22,0.08 0.23,0.06 0.25,0.05 0.26,0.05 0.14,0.02 0.14,0.01 0.14,0.02 0.14,0.01 0.15,0 0.15,0.01 0,1.54 -8.07,0 0,-1.54 c 1.85,-0.05 2.39,-1.2 2.39,-2.14 0,-0.45 -0.09,-0.65 -0.29,-1.2 l -5.08,-12.7 -5.58,13.9 c -0.3,0.64 -0.3,0.74 -0.3,0.84 0,1.3 1.94,1.3 2.84,1.3 l 0,1.54 -10.26,0 0,-1.54 c 3.14,0 3.33,-0.31 3.98,-1.85 l 7.17,-17.68 c 0.3,-0.7 0.4,-0.95 1.05,-0.95 0.65,0 0.85,0.45 1.05,0.95 z"
           inkscape:connector-curvature="0"
           style="fill:#000000;stroke-width:0" /><path
           id="path9839"
           d="m 614.53,417.51 0.05,1.04 c 0.3,7.43 4.48,8.67 6.18,8.67 5.13,0 5.63,-6.72 5.63,-8.67 l -11.81,0 -0.05,-1.04 13.9,0 c 1.09,0 1.24,0 1.24,1.04 0,4.93 -2.69,9.77 -8.91,9.77 -5.78,0 -10.36,-5.14 -10.36,-11.36 0,-6.67 5.22,-11.51 10.95,-11.51 6.08,0 8.32,5.53 8.32,6.48 0,0.5 -0.4,0.6 -0.65,0.6 -0.44,0 -0.54,-0.3 -0.64,-0.7 -1.75,-5.13 -6.23,-5.13 -6.73,-5.13 -2.49,0 -4.48,1.49 -5.63,3.34 -1.49,2.39 -1.49,5.67 -1.49,7.47 z"
           inkscape:connector-curvature="0"
           style="fill:#000000;stroke-width:0" /><path
           id="path9841"
           d="m 639.82,440.57 -7.17,-0.55 0,-1.54 c 3.48,0 3.88,-0.35 3.88,-2.79 l 0,-25.9 c 0,-2.25 -0.55,-2.25 -3.88,-2.25 l 0,-1.54 11.05,0 0,1.54 c -3.34,0 -3.88,0 -3.88,2.25 z"
           inkscape:connector-curvature="0"
           style="fill:#000000;stroke-width:0" /><path
           id="path9843"
           d="m 665.67,422.74 0.06,0.14 0.07,0.14 0.06,0.14 0.07,0.13 0.07,0.13 0.07,0.12 0.07,0.12 0.07,0.12 0.15,0.21 0.15,0.21 0.16,0.19 0.16,0.17 0.16,0.16 0.17,0.15 0.17,0.13 0.17,0.13 0.17,0.11 0.17,0.1 0.17,0.09 0.17,0.08 0.16,0.07 0.17,0.06 0.16,0.06 0.16,0.04 0.16,0.04 0.15,0.04 0.15,0.03 0.14,0.02 0.13,0.02 0.13,0.01 0.13,0.01 0.11,0.01 0.11,0 0.1,0 0.09,0.01 0.07,0 0,1.54 -8.07,0 0,-1.54 c 1.55,-0.05 2.35,-0.9 2.35,-2.14 0,-0.5 -0.05,-0.61 -0.3,-1.2 l -5.03,-12.26 -5.53,13.4 c -0.2,0.5 -0.3,0.7 -0.3,0.9 0,1.3 1.84,1.3 2.79,1.3 l 0,1.54 -10.26,0 0,-1.54 c 2.39,0 3.33,0 4.03,-1.75 L 657.45,406 c -0.25,-0.65 -0.94,-2.29 -1.24,-2.94 -1.1,-2.74 -2.49,-6.18 -5.68,-6.18 -0.25,0 -1.4,0 -2.34,0.9 1.54,0.2 1.94,1.29 1.94,2.09 0,1.3 -0.95,2.09 -2.09,2.09 -1,0 -2.09,-0.64 -2.09,-2.14 0,-2.24 2.09,-4.03 4.58,-4.03 3.14,0 5.18,2.84 6.38,5.68 z"
           inkscape:connector-curvature="0"
           style="fill:#000000;stroke-width:0" /><path
           id="path9845"
           d="m 693.53,417.51 0.05,1.04 c 0.3,7.43 4.48,8.67 6.18,8.67 5.13,0 5.63,-6.72 5.63,-8.67 l -11.81,0 -0.05,-1.04 13.9,0 c 1.09,0 1.24,0 1.24,1.04 0,4.93 -2.69,9.77 -8.91,9.77 -5.78,0 -10.36,-5.14 -10.36,-11.36 0,-6.67 5.22,-11.51 10.95,-11.51 6.08,0 8.32,5.53 8.32,6.48 0,0.5 -0.4,0.6 -0.65,0.6 -0.44,0 -0.54,-0.3 -0.64,-0.7 -1.75,-5.13 -6.23,-5.13 -6.73,-5.13 -2.49,0 -4.48,1.49 -5.63,3.34 -1.49,2.39 -1.49,5.67 -1.49,7.47 z"
           inkscape:connector-curvature="0"
           style="fill:#000000;stroke-width:0" /><path
           id="path9847"
           d="m 728.93,409.04 0,-8.92 c 0,-2.24 -0.55,-2.24 -3.89,-2.24 l 0,-1.54 11.21,0 0,1.54 c -3.34,0 -3.88,0 -3.88,2.24 l 0,27.9 -1.1,0 -1.89,-4.54 c -0.65,1.4 -2.69,4.54 -6.68,4.54 -5.77,0 -11,-4.84 -11,-11.31 0,-6.23 4.83,-11.26 10.6,-11.26 l 0.2,1.1 c -3.63,0 -6.67,4.43 -6.67,10.16 0,5.93 3.49,10.06 7.17,10.06 3.98,0 6.08,-4.33 6.08,-6.97 l 0,0 0,-7.03 c 0,-1.59 -0.9,-2.98 -1.99,-4.18 -0.65,-0.7 -2.25,-2.04 -4.59,-2.04 l -0.2,-1.1 c 3.49,0 5.53,2.14 6.63,3.59 z"
           inkscape:connector-curvature="0"
           style="fill:#000000;stroke-width:0" /><path
           id="path9849"
           d="m 755.48,409.93 0,-4.48 7.17,0.55 0,1.54 c -3.49,0 -3.88,0.35 -3.88,2.79 l 0,17.69 -7.33,-0.55 0,-1.54 c 3.49,0 3.89,-0.35 3.89,-2.79 l 0,-8.87 c 0,-4.34 -2.39,-7.72 -6.03,-7.72 -4.18,0 -4.38,2.34 -4.38,4.93 l 0,16.54 -7.33,-0.55 0,-1.54 c 3.89,0 3.89,-0.15 3.89,-4.59 l 0,-7.47 c 0,-3.89 0,-8.42 7.57,-8.42 2.79,0 4.98,1.4 6.43,4.48 z"
           inkscape:connector-curvature="0"
           style="fill:#000000;stroke-width:0" /><path
           id="path9851"
           d="m 772.82,428.02 -6.98,-0.55 0,-1.54 c 3.24,0 3.69,-0.31 3.69,-2.75 l 0,-13.39 c 0,-2.25 -0.55,-2.25 -3.88,-2.25 l 0,-1.54 10.65,0 0,1.54 c -3.28,0 -3.48,0.25 -3.48,2.19 z"
           inkscape:connector-curvature="0"
           style="fill:#000000;stroke-width:0" /><path
           id="path9853"
           d="m 773.02,436.68 -0.01,0.15 -0.01,0.15 -0.02,0.14 -0.02,0.13 -0.03,0.14 -0.04,0.13 -0.04,0.13 -0.05,0.12 -0.06,0.12 -0.06,0.11 -0.06,0.11 -0.07,0.11 -0.08,0.1 -0.08,0.1 -0.08,0.09 -0.09,0.09 -0.09,0.09 -0.1,0.07 -0.1,0.08 -0.11,0.07 -0.1,0.06 -0.11,0.06 -0.12,0.06 -0.11,0.05 -0.12,0.04 -0.12,0.04 -0.13,0.03 -0.12,0.03 -0.13,0.02 -0.13,0.01 -0.12,0.01 -0.13,0 c -1.55,0 -2.65,-1.34 -2.65,-2.64 0,-1.34 1.1,-2.64 2.65,-2.64 1.39,0 2.64,1.05 2.64,2.64 z"
           inkscape:connector-curvature="0"
           style="fill:#000000;stroke-width:0" /><path
           id="path9855"
           d="m 798.72,422.59 0.05,0.11 0.04,0.11 0.05,0.12 0.05,0.13 0.06,0.13 0.06,0.13 0.07,0.13 0.07,0.14 0.07,0.13 0.08,0.14 0.09,0.14 0.09,0.13 0.1,0.14 0.11,0.13 0.12,0.14 0.12,0.13 0.13,0.12 0.14,0.13 0.15,0.12 0.16,0.11 0.17,0.11 0.18,0.1 0.18,0.1 0.2,0.08 0.22,0.08 0.22,0.08 0.23,0.06 0.25,0.05 0.26,0.05 0.14,0.02 0.14,0.01 0.14,0.02 0.14,0.01 0.15,0 0.15,0.01 0,1.54 -8.07,0 0,-1.54 c 1.85,-0.05 2.39,-1.2 2.39,-2.14 0,-0.45 -0.09,-0.65 -0.29,-1.2 l -5.08,-12.7 -5.58,13.9 c -0.3,0.64 -0.3,0.74 -0.3,0.84 0,1.3 1.94,1.3 2.84,1.3 l 0,1.54 -10.26,0 0,-1.54 c 3.14,0 3.33,-0.31 3.98,-1.85 l 7.17,-17.68 c 0.3,-0.7 0.4,-0.95 1.05,-0.95 0.65,0 0.85,0.45 1.05,0.95 z"
           inkscape:connector-curvature="0"
           style="fill:#000000;stroke-width:0" /><path
           id="path9857"
           d="m 817.59,409.79 0.02,-0.19 0.03,-0.19 0.03,-0.19 0.04,-0.18 0.05,-0.19 0.06,-0.18 0.06,-0.18 0.07,-0.18 0.07,-0.18 0.08,-0.18 0.09,-0.17 0.1,-0.16 0.1,-0.17 0.1,-0.15 0.12,-0.16 0.12,-0.14 0.12,-0.15 0.13,-0.13 0.14,-0.13 0.15,-0.12 0.15,-0.12 0.15,-0.1 0.17,-0.1 0.17,-0.09 0.17,-0.08 0.18,-0.07 0.19,-0.07 0.19,-0.05 0.2,-0.04 0.21,-0.03 0.21,-0.01 0.21,-0.01 c 1.05,0 4.09,0.7 4.09,4.73 l 0,2.79 -1.25,0 0,-2.79 c 0,-2.89 -1.24,-3.18 -1.79,-3.18 -1.64,0 -1.84,2.24 -1.84,2.48 l 0,9.97 c 0,2.09 0,4.03 -1.8,5.88 -1.94,1.94 -4.43,2.74 -6.82,2.74 -4.09,0 -7.53,-2.34 -7.53,-5.63 0,-1.5 1,-2.34 2.3,-2.34 1.39,0 2.29,0.99 2.29,2.29 0,0.59 -0.25,2.24 -2.54,2.29 1.35,1.74 3.78,2.29 5.38,2.29 2.44,0 5.28,-1.94 5.28,-6.38 l 0,-1.84 0,-1.04 0,-4.99 c 0,-4.73 -3.59,-6.42 -5.83,-6.42 -2.44,0 -4.48,1.74 -4.48,4.23 0,2.74 2.09,6.88 10.31,7.18 l 0,0 0,1.04 c -2.54,-0.15 -6.03,-0.3 -9.17,-1.79 -3.73,-1.69 -4.98,-4.28 -4.98,-6.48 0,-4.03 4.84,-5.28 7.97,-5.28 3.29,0 5.58,2 6.53,4.34 z"
           inkscape:connector-curvature="0"
           style="fill:#000000;stroke-width:0" /><path
           id="path9859"
           d="m 834.82,440.57 -7.17,-0.55 0,-1.54 c 3.48,0 3.88,-0.35 3.88,-2.79 l 0,-25.9 c 0,-2.25 -0.55,-2.25 -3.88,-2.25 l 0,-1.54 11.05,0 0,1.54 c -3.34,0 -3.88,0 -3.88,2.25 z"
           inkscape:connector-curvature="0"
           style="fill:#000000;stroke-width:0" /><path
           id="path9861"
           d="m 845.53,417.51 0.05,1.04 c 0.3,7.43 4.48,8.67 6.18,8.67 5.13,0 5.63,-6.72 5.63,-8.67 l -11.81,0 -0.05,-1.04 13.9,0 c 1.09,0 1.24,0 1.24,1.04 0,4.93 -2.69,9.77 -8.91,9.77 -5.78,0 -10.36,-5.14 -10.36,-11.36 0,-6.67 5.22,-11.51 10.95,-11.51 6.08,0 8.32,5.53 8.32,6.48 0,0.5 -0.4,0.6 -0.65,0.6 -0.44,0 -0.54,-0.3 -0.64,-0.7 -1.75,-5.13 -6.23,-5.13 -6.73,-5.13 -2.49,0 -4.48,1.49 -5.63,3.34 -1.49,2.39 -1.49,5.67 -1.49,7.47 z"
           inkscape:connector-curvature="0"
           style="fill:#000000;stroke-width:0" /><path
           id="path9863"
           d="m 867.48,423.14 0,-13.35 c 0,-2.25 -0.55,-2.25 -3.89,-2.25 l 0,-1.54 11.21,0 0,1.54 c -3.33,0 -3.88,0 -3.88,2.25 l 0,9.16 c 0,5.18 3.53,7.97 6.72,7.97 3.14,0 3.69,-2.69 3.69,-5.53 l 0,-11.6 c 0,-2.25 -0.55,-2.25 -3.89,-2.25 l 0,-1.54 11.21,0 0,1.54 c -2.59,0 -3.84,0 -3.88,1.5 l 0,9.51 c 0,4.29 0,5.83 -1.55,7.63 -0.7,0.84 -2.34,1.84 -5.23,1.84 -3.64,0 -5.98,-2.14 -7.37,-5.23 l 0,5.23 -7.03,-0.55 0,-1.54 c 3.49,0 3.89,-0.35 3.89,-2.79 z"
           inkscape:connector-curvature="0"
           style="fill:#000000;stroke-width:0" /><path
           id="path9865"
           d="m 897.62,425.93 7.12,0 0,1.54 -7.12,0 0,9.17 -1.25,0 c -0.05,-4.09 -1.54,-9.42 -6.42,-9.62 l 0,-1.09 4.23,0 0,-13.75 c 0,-6.13 4.63,-6.73 6.42,-6.73 3.55,0 4.94,3.54 4.94,6.73 l 0,2.84 -1.25,0 0,-2.74 c 0,-3.69 -1.49,-5.58 -3.33,-5.58 -3.34,0 -3.34,4.53 -3.34,5.38 z"
           inkscape:connector-curvature="0"
           style="fill:#000000;stroke-width:0" /><path
           id="path9867"
           d="m 915.62,416.41 1.94,22.71 c 0,1.65 -1.34,2.55 -2.63,2.55 -1.3,0 -2.65,-0.9 -2.65,-2.55 l 1.95,-22.66 c 0.05,-0.75 0.1,-1.14 0.7,-1.14 0.49,0 0.64,0.24 0.69,1.09 z"
           inkscape:connector-curvature="0"
           style="fill:#000000;stroke-width:0" /><path
           id="path9869"
           d="m 917.56,408.64 0,0.14 -0.01,0.13 -0.02,0.13 -0.02,0.13 -0.03,0.13 -0.04,0.12 -0.04,0.12 -0.05,0.12 -0.05,0.12 -0.06,0.11 -0.06,0.11 -0.07,0.11 -0.08,0.1 -0.07,0.1 -0.09,0.1 -0.09,0.09 -0.09,0.09 -0.09,0.08 -0.1,0.08 -0.11,0.08 -0.1,0.07 -0.11,0.06 -0.12,0.06 -0.11,0.05 -0.12,0.05 -0.13,0.04 -0.12,0.04 -0.13,0.03 -0.13,0.02 -0.13,0.02 -0.13,0.01 -0.13,0 c -1.45,0 -2.65,-1.19 -2.65,-2.64 0,-1.44 1.2,-2.64 2.65,-2.64 1.44,0 2.63,1.2 2.63,2.64 z"
           inkscape:connector-curvature="0"
           style="fill:#000000;stroke-width:0" /></g>    </g>
  </g>
</svg>
