<?xml version="1.0" encoding="UTF-8" standalone="no"?>
<!-- Created with Inkscape (http://www.inkscape.org/) -->

<svg
   xmlns:dc="http://purl.org/dc/elements/1.1/"
   xmlns:cc="http://creativecommons.org/ns#"
   xmlns:rdf="http://www.w3.org/1999/02/22-rdf-syntax-ns#"
   xmlns:svg="http://www.w3.org/2000/svg"
   xmlns="http://www.w3.org/2000/svg"
   xmlns:xlink="http://www.w3.org/1999/xlink"
   xmlns:sodipodi="http://sodipodi.sourceforge.net/DTD/sodipodi-0.dtd"
   xmlns:inkscape="http://www.inkscape.org/namespaces/inkscape"
   width="237.96771mm"
   height="142.82144mm"
   viewBox="0 0 843.19267 506.06023"
   id="svg2"
   version="1.1"
   inkscape:version="0.91 r13725"
   sodipodi:docname="example_discrete.svg">
  <sodipodi:namedview
     id="base"
     pagecolor="#ffffff"
     bordercolor="#666666"
     borderopacity="1.0"
     inkscape:pageopacity="0.0"
     inkscape:pageshadow="2"
     inkscape:zoom="1.4"
     inkscape:cx="295.22888"
     inkscape:cy="287.40298"
     inkscape:document-units="px"
     inkscape:current-layer="layer1"
     showgrid="false"
     inkscape:window-width="1855"
     inkscape:window-height="1056"
     inkscape:window-x="65"
     inkscape:window-y="24"
     inkscape:window-maximized="1"
     fit-margin-top="2"
     fit-margin-left="2"
     fit-margin-right="2"
     fit-margin-bottom="2"
     inkscape:snap-grids="true"
     inkscape:snap-others="true" />
  <defs
     id="defs4">
    <linearGradient
       inkscape:collect="always"
       id="linearGradient4146">
      <stop
         style="stop-color:#c8beb7;stop-opacity:1;"
         offset="0"
         id="stop4148" />
      <stop
         style="stop-color:#c8beb7;stop-opacity:0;"
         offset="1"
         id="stop4150" />
    </linearGradient>
    <linearGradient
       gradientTransform="translate(-86.989129,-93.863411)"
       inkscape:collect="always"
       xlink:href="#linearGradient4146"
       id="linearGradient4152-1"
       x1="309.5"
       y1="218.79077"
       x2="386.21429"
       y2="218.79077"
       gradientUnits="userSpaceOnUse" />
    <linearGradient
       gradientTransform="translate(181.57915,-301.33377)"
       inkscape:collect="always"
       xlink:href="#linearGradient4146"
       id="linearGradient4152-1-35"
       x1="309.5"
       y1="218.79077"
       x2="386.21429"
       y2="218.79077"
       gradientUnits="userSpaceOnUse" />
    <linearGradient
       gradientTransform="translate(181.57917,113.83896)"
       inkscape:collect="always"
       xlink:href="#linearGradient4146"
       id="linearGradient4152-1-1"
       x1="309.5"
       y1="218.79077"
       x2="386.21429"
       y2="218.79077"
       gradientUnits="userSpaceOnUse" />
    <linearGradient
       gradientTransform="translate(181.57921,-93.747412)"
       inkscape:collect="always"
       xlink:href="#linearGradient4146"
       id="linearGradient4152-1-1-3"
       x1="309.5"
       y1="218.79077"
       x2="386.21429"
       y2="218.79077"
       gradientUnits="userSpaceOnUse" />
    <marker
       inkscape:collect="always"
       inkscape:isstock="true"
       style="overflow:visible"
       id="marker6386-6-3"
       refX="0"
       refY="0"
       orient="auto"
       inkscape:stockid="Arrow1Lend">
      <path
         inkscape:connector-curvature="0"
         transform="matrix(-0.8,0,0,-0.8,-10,0)"
         style="fill:#000000;fill-opacity:1;fill-rule:evenodd;stroke:#000000;stroke-width:1pt;stroke-opacity:1"
         d="M 0,0 5,-5 -12.5,0 5,5 0,0 Z"
         id="path6388-1-5" />
    </marker>
    <marker
       inkscape:isstock="true"
       style="overflow:visible"
       id="marker20823-5-3-9"
       refX="0"
       refY="0"
       orient="auto"
       inkscape:stockid="Arrow1Lend">
      <path
         transform="matrix(-0.8,0,0,-0.8,-10,0)"
         style="fill:#000000;fill-opacity:1;fill-rule:evenodd;stroke:#000000;stroke-width:1pt;stroke-opacity:1"
         d="M 0,0 5,-5 -12.5,0 5,5 0,0 Z"
         id="path20825-9-7-2"
         inkscape:connector-curvature="0" />
    </marker>
    <marker
       inkscape:isstock="true"
       style="overflow:visible"
       id="marker20823-5-3-9-2"
       refX="0"
       refY="0"
       orient="auto"
       inkscape:stockid="Arrow1Lend">
      <path
         transform="matrix(-0.8,0,0,-0.8,-10,0)"
         style="fill:#000000;fill-opacity:1;fill-rule:evenodd;stroke:#000000;stroke-width:1pt;stroke-opacity:1"
         d="M 0,0 5,-5 -12.5,0 5,5 0,0 Z"
         id="path20825-9-7-2-7"
         inkscape:connector-curvature="0" />
    </marker>
  </defs>
  <metadata
     id="metadata7">
    <rdf:RDF>
      <cc:Work
         rdf:about="">
        <dc:format>image/svg+xml</dc:format>
        <dc:type
           rdf:resource="http://purl.org/dc/dcmitype/StillImage" />
        <dc:title />
      </cc:Work>
    </rdf:RDF>
  </metadata>
  <g
     transform="translate(-215.42425,127.98672)"
     inkscape:label="Layer 1"
     inkscape:groupmode="layer"
     id="layer1">
    <circle
       style="color:#000000;clip-rule:nonzero;display:inline;overflow:visible;visibility:visible;opacity:1;isolation:auto;mix-blend-mode:normal;color-interpolation:sRGB;color-interpolation-filters:linearRGB;solid-color:#000000;solid-opacity:1;fill:url(#linearGradient4152-1);fill-opacity:1;fill-rule:nonzero;stroke:#c77d7d;stroke-width:1;stroke-linecap:butt;stroke-linejoin:miter;stroke-miterlimit:4;stroke-dasharray:none;stroke-dashoffset:0;stroke-opacity:1;color-rendering:auto;image-rendering:auto;shape-rendering:auto;text-rendering:auto;enable-background:accumulate"
       id="path4136-0"
       cx="260.86798"
       cy="124.9274"
       r="37.857143" />
    <circle
       style="color:#000000;clip-rule:nonzero;display:inline;overflow:visible;visibility:visible;opacity:1;isolation:auto;mix-blend-mode:normal;color-interpolation:sRGB;color-interpolation-filters:linearRGB;solid-color:#000000;solid-opacity:1;fill:url(#linearGradient4152-1-35);fill-opacity:1;fill-rule:nonzero;stroke:#c77d7d;stroke-width:1;stroke-linecap:butt;stroke-linejoin:miter;stroke-miterlimit:4;stroke-dasharray:none;stroke-dashoffset:0;stroke-opacity:1;color-rendering:auto;image-rendering:auto;shape-rendering:auto;text-rendering:auto;enable-background:accumulate"
       id="path4136-0-9"
       cx="529.43634"
       cy="-82.542961"
       r="37.857143" />
    <circle
       style="color:#000000;clip-rule:nonzero;display:inline;overflow:visible;visibility:visible;opacity:1;isolation:auto;mix-blend-mode:normal;color-interpolation:sRGB;color-interpolation-filters:linearRGB;solid-color:#000000;solid-opacity:1;fill:url(#linearGradient4152-1-1);fill-opacity:1;fill-rule:nonzero;stroke:#c77d7d;stroke-width:1;stroke-linecap:butt;stroke-linejoin:miter;stroke-miterlimit:4;stroke-dasharray:none;stroke-dashoffset:0;stroke-opacity:1;color-rendering:auto;image-rendering:auto;shape-rendering:auto;text-rendering:auto;enable-background:accumulate"
       id="path4136-0-0"
       cx="529.43634"
       cy="332.62979"
       r="37.857143" />
    <path
       inkscape:connector-curvature="0"
       id="path6378-8"
       d="m 291.14203,150.46565 c 201.2325,162.19741 201.2325,162.19741 201.2325,162.19741"
       style="fill:none;fill-rule:evenodd;stroke:#000000;stroke-width:2.08046198;stroke-linecap:butt;stroke-linejoin:miter;stroke-miterlimit:4;stroke-dasharray:none;stroke-opacity:1" />
    <circle
       style="color:#000000;clip-rule:nonzero;display:inline;overflow:visible;visibility:visible;opacity:1;isolation:auto;mix-blend-mode:normal;color-interpolation:sRGB;color-interpolation-filters:linearRGB;solid-color:#000000;solid-opacity:1;fill:url(#linearGradient4152-1-1-3);fill-opacity:1;fill-rule:nonzero;stroke:#c77d7d;stroke-width:1;stroke-linecap:butt;stroke-linejoin:miter;stroke-miterlimit:4;stroke-dasharray:none;stroke-dashoffset:0;stroke-opacity:1;color-rendering:auto;image-rendering:auto;shape-rendering:auto;text-rendering:auto;enable-background:accumulate"
       id="path4136-0-0-5"
       cx="529.43634"
       cy="125.04341"
       r="37.857143" />
    <path
       inkscape:transform-center-y="-19.068274"
       inkscape:transform-center-x="2.4256553"
       inkscape:connector-curvature="0"
       id="path6378-8-6"
       d="m 298.39081,126.55598 c 188.76735,-0.62172 188.76735,-0.62172 188.76735,-0.62172"
       style="fill:none;fill-rule:evenodd;stroke:#000000;stroke-width:1.84859002;stroke-linecap:butt;stroke-linejoin:miter;stroke-miterlimit:4;stroke-dasharray:none;stroke-opacity:1;marker-end:url(#marker6386-6-3)" />
    <path
       inkscape:connector-curvature="0"
       id="path6378-8-6-1"
       d="M 291.97587,101.38617 C 493.20845,-60.811286 493.20845,-60.811286 493.20845,-60.811286"
       style="fill:none;fill-rule:evenodd;stroke:#000000;stroke-width:2.08000016;stroke-linecap:butt;stroke-linejoin:miter;stroke-miterlimit:4;stroke-dasharray:none;stroke-opacity:1" />
    <g
       id="g7472"
       transform="translate(119.13125,-819.23382)">
      <g
         word-spacing="normal"
         letter-spacing="normal"
         font-size-adjust="none"
         font-stretch="normal"
         font-weight="normal"
         font-variant="normal"
         font-style="normal"
         stroke-miterlimit="10.433"
         xml:space="preserve"
         transform="matrix(0.75928009,0,0,-0.75928009,-132.87402,1113.9027)"
         id="content"
         style="font-style:normal;font-variant:normal;font-weight:normal;font-stretch:normal;letter-spacing:normal;word-spacing:normal;text-anchor:start;fill:none;fill-opacity:1;fill-rule:evenodd;stroke:#000000;stroke-linecap:butt;stroke-linejoin:miter;stroke-miterlimit:10.43299961;stroke-dasharray:none;stroke-dashoffset:0;stroke-opacity:1"><path
           id="path7475"
           d="m 474.58,424.83 -0.08,0.17 -0.09,0.17 -0.1,0.16 -0.09,0.16 -0.1,0.16 -0.1,0.16 -0.11,0.15 -0.11,0.14 -0.11,0.15 -0.12,0.13 -0.12,0.14 -0.12,0.13 -0.13,0.12 -0.13,0.12 -0.14,0.11 -0.14,0.11 -0.14,0.11 -0.15,0.09 -0.15,0.1 -0.15,0.08 -0.16,0.08 -0.17,0.08 -0.17,0.07 -0.17,0.06 -0.17,0.05 -0.19,0.05 -0.18,0.04 -0.19,0.03 -0.19,0.03 -0.2,0.02 -0.21,0.01 -0.2,0.01 0.05,-1.1 c 3.24,0 3.93,-4.08 3.93,-4.38 0,-0.3 -0.1,-0.6 -0.15,-0.85 l -2.49,-9.76 c -0.25,-0.9 -0.25,-1 -0.99,-1.84 -2.19,-2.75 -4.24,-3.54 -5.63,-3.54 -2.49,0 -3.19,2.74 -3.19,4.68 0,2.49 1.59,8.62 2.74,10.91 1.54,2.94 3.78,4.78 5.78,4.78 l -0.05,1.1 c -5.83,0 -12.01,-7.32 -12.01,-14.6 0,-4.68 2.74,-7.97 6.63,-7.97 0.99,0 3.49,0.2 6.47,3.74 0.4,-2.09 2.14,-3.74 4.53,-3.74 1.75,0 2.9,1.15 3.69,2.74 0.85,1.79 1.5,4.83 1.5,4.93 0,0.5 -0.45,0.5 -0.6,0.5 -0.5,0 -0.55,-0.2 -0.7,-0.89 -0.85,-3.24 -1.74,-6.18 -3.78,-6.18 -1.35,0 -1.5,1.29 -1.5,2.29 0,1.09 0.1,1.49 0.65,3.69 0.55,2.09 0.65,2.59 1.1,4.48 l 1.79,6.97 c 0.35,1.4 0.35,1.5 0.35,1.7 0,0.84 -0.6,1.34 -1.45,1.34 -1.19,0 -1.94,-1.09 -2.09,-2.19 z"
           inkscape:connector-curvature="0"
           style="fill:#000000;stroke-width:0" /><path
           id="path7477"
           d="m 492.11,406.05 0,0.31 -0.01,0.29 -0.02,0.29 -0.02,0.28 -0.04,0.27 -0.03,0.26 -0.05,0.26 -0.05,0.24 -0.06,0.24 -0.07,0.23 -0.07,0.22 -0.07,0.21 -0.09,0.2 -0.09,0.19 -0.09,0.18 -0.1,0.18 -0.11,0.16 -0.11,0.15 -0.12,0.15 -0.12,0.13 -0.13,0.13 -0.13,0.11 -0.14,0.1 -0.15,0.1 -0.15,0.08 -0.15,0.07 -0.16,0.06 -0.16,0.05 -0.17,0.04 -0.17,0.03 -0.17,0.02 -0.18,0 c -1.65,0 -2.64,-1.24 -2.64,-2.64 0,-1.34 0.99,-2.64 2.64,-2.64 0.59,0 1.24,0.2 1.74,0.65 0.15,0.1 0.2,0.15 0.25,0.15 0.04,0 0.1,-0.05 0.1,-0.75 0,-3.69 -1.75,-6.67 -3.39,-8.32 -0.55,-0.55 -0.55,-0.65 -0.55,-0.8 0,-0.34 0.25,-0.54 0.5,-0.54 0.55,0 4.53,3.83 4.53,9.66 z"
           inkscape:connector-curvature="0"
           style="fill:#000000;stroke-width:0" /><path
           id="path7479"
           d="m 521.68,448.18 0,0.04 0,0.04 0,0.04 0,0.04 0,0.04 0,0.04 0,0.03 0,0.04 -0.01,0.03 0,0.03 0,0.04 0,0.03 -0.01,0.02 0,0.03 0,0.03 -0.01,0.03 0,0.02 0,0.02 -0.02,0.05 -0.01,0.04 -0.01,0.04 -0.02,0.03 -0.02,0.03 -0.02,0.03 -0.03,0.03 -0.02,0.02 -0.03,0.02 -0.04,0.02 -0.03,0.01 -0.04,0.01 -0.05,0.02 -0.05,0 -0.02,0.01 -0.03,0 -0.03,0.01 -0.02,0 -0.03,0 -0.03,0 -0.04,0 -0.03,0.01 -0.03,0 -0.04,0 -0.03,0 -0.04,0 -0.04,0 -0.04,0 -0.04,0 -0.04,0 -0.05,0 -0.04,0 c -2.24,-2.19 -5.41,-2.23 -6.84,-2.23 l 0,-1.25 c 0.84,0 3.14,0 5.05,0.97 l 0,-17.78 c 0,-1.15 0,-1.61 -3.48,-1.61 l -1.33,0 0,-1.25 12.45,0 0,1.25 -1.32,0 c -3.49,0 -3.49,0.46 -3.49,1.61 z"
           inkscape:connector-curvature="0"
           style="fill:#000000;stroke-width:0" /><polyline
           id="polyline7481"
           points="510,418 529.92,418 529.92,420.04 510,420.04 "
           style="fill:#000000;fill-rule:nonzero;stroke-width:0" /><path
           id="path7483"
           d="m 527.61,395.35 -1.19,0 c -0.1,-0.77 -0.45,-2.83 -0.9,-3.18 -0.28,-0.21 -2.97,-0.21 -3.45,-0.21 l -6.42,0 c 3.66,3.25 4.88,4.22 6.97,5.86 2.58,2.06 4.99,4.22 4.99,7.54 0,4.21 -3.7,6.79 -8.16,6.79 -4.33,0 -7.25,-3.03 -7.25,-6.24 0,-1.78 1.5,-1.95 1.84,-1.95 0.84,0 1.86,0.59 1.86,1.85 0,0.62 -0.25,1.85 -2.06,1.85 1.08,2.47 3.45,3.24 5.09,3.24 3.48,0 5.3,-2.72 5.3,-5.54 0,-3.04 -2.16,-5.45 -3.28,-6.7 l -8.4,-8.3 c -0.35,-0.31 -0.35,-0.38 -0.35,-1.36 l 14.36,0 z"
           inkscape:connector-curvature="0"
           style="fill:#000000;stroke-width:0" /></g>    </g>
    <g
       id="g7563"
       transform="translate(119.13125,-536.39108)">
      <g
         id="g7565"
         transform="matrix(0.75928009,0,0,-0.75928009,-132.87402,1113.9027)"
         xml:space="preserve"
         stroke-miterlimit="10.433"
         font-style="normal"
         font-variant="normal"
         font-weight="normal"
         font-stretch="normal"
         font-size-adjust="none"
         letter-spacing="normal"
         word-spacing="normal"
         style="font-style:normal;font-variant:normal;font-weight:normal;font-stretch:normal;letter-spacing:normal;word-spacing:normal;text-anchor:start;fill:none;fill-opacity:1;fill-rule:evenodd;stroke:#000000;stroke-linecap:butt;stroke-linejoin:miter;stroke-miterlimit:10.43299961;stroke-dasharray:none;stroke-dashoffset:0;stroke-opacity:1"><path
           d="m 474.58,424.83 -0.08,0.17 -0.09,0.17 -0.1,0.16 -0.09,0.16 -0.1,0.16 -0.1,0.16 -0.11,0.15 -0.11,0.14 -0.11,0.15 -0.12,0.13 -0.12,0.14 -0.12,0.13 -0.13,0.12 -0.13,0.12 -0.14,0.11 -0.14,0.11 -0.14,0.11 -0.15,0.09 -0.15,0.1 -0.15,0.08 -0.16,0.08 -0.17,0.08 -0.17,0.07 -0.17,0.06 -0.17,0.05 -0.19,0.05 -0.18,0.04 -0.19,0.03 -0.19,0.03 -0.2,0.02 -0.21,0.01 -0.2,0.01 0.05,-1.1 c 3.24,0 3.93,-4.08 3.93,-4.38 0,-0.3 -0.1,-0.6 -0.15,-0.85 l -2.49,-9.76 c -0.25,-0.9 -0.25,-1 -0.99,-1.84 -2.19,-2.75 -4.24,-3.54 -5.63,-3.54 -2.49,0 -3.19,2.74 -3.19,4.68 0,2.49 1.59,8.62 2.74,10.91 1.54,2.94 3.78,4.78 5.78,4.78 l -0.05,1.1 c -5.83,0 -12.01,-7.32 -12.01,-14.6 0,-4.68 2.74,-7.97 6.63,-7.97 0.99,0 3.49,0.2 6.47,3.74 0.4,-2.09 2.14,-3.74 4.53,-3.74 1.75,0 2.9,1.15 3.69,2.74 0.85,1.79 1.5,4.83 1.5,4.93 0,0.5 -0.45,0.5 -0.6,0.5 -0.5,0 -0.55,-0.2 -0.7,-0.89 -0.85,-3.24 -1.74,-6.18 -3.78,-6.18 -1.35,0 -1.5,1.29 -1.5,2.29 0,1.09 0.1,1.49 0.65,3.69 0.55,2.09 0.65,2.59 1.1,4.48 l 1.79,6.97 c 0.35,1.4 0.35,1.5 0.35,1.7 0,0.84 -0.6,1.34 -1.45,1.34 -1.19,0 -1.94,-1.09 -2.09,-2.19 z"
           id="path7567"
           inkscape:connector-curvature="0"
           style="fill:#000000;stroke-width:0" /><path
           d="m 492.11,406.05 0,0.31 -0.01,0.29 -0.02,0.29 -0.02,0.28 -0.04,0.27 -0.03,0.26 -0.05,0.26 -0.05,0.24 -0.06,0.24 -0.07,0.23 -0.07,0.22 -0.07,0.21 -0.09,0.2 -0.09,0.19 -0.09,0.18 -0.1,0.18 -0.11,0.16 -0.11,0.15 -0.12,0.15 -0.12,0.13 -0.13,0.13 -0.13,0.11 -0.14,0.1 -0.15,0.1 -0.15,0.08 -0.15,0.07 -0.16,0.06 -0.16,0.05 -0.17,0.04 -0.17,0.03 -0.17,0.02 -0.18,0 c -1.65,0 -2.64,-1.24 -2.64,-2.64 0,-1.34 0.99,-2.64 2.64,-2.64 0.59,0 1.24,0.2 1.74,0.65 0.15,0.1 0.2,0.15 0.25,0.15 0.04,0 0.1,-0.05 0.1,-0.75 0,-3.69 -1.75,-6.67 -3.39,-8.32 -0.55,-0.55 -0.55,-0.65 -0.55,-0.8 0,-0.34 0.25,-0.54 0.5,-0.54 0.55,0 4.53,3.83 4.53,9.66 z"
           id="path7569"
           inkscape:connector-curvature="0"
           style="fill:#000000;stroke-width:0" /><path
           d="m 521.68,448.18 0,0.04 0,0.04 0,0.04 0,0.04 0,0.04 0,0.04 0,0.03 0,0.04 -0.01,0.03 0,0.03 0,0.04 0,0.03 -0.01,0.02 0,0.03 0,0.03 -0.01,0.03 0,0.02 0,0.02 -0.02,0.05 -0.01,0.04 -0.01,0.04 -0.02,0.03 -0.02,0.03 -0.02,0.03 -0.03,0.03 -0.02,0.02 -0.03,0.02 -0.04,0.02 -0.03,0.01 -0.04,0.01 -0.05,0.02 -0.05,0 -0.02,0.01 -0.03,0 -0.03,0.01 -0.02,0 -0.03,0 -0.03,0 -0.04,0 -0.03,0.01 -0.03,0 -0.04,0 -0.03,0 -0.04,0 -0.04,0 -0.04,0 -0.04,0 -0.04,0 -0.05,0 -0.04,0 c -2.24,-2.19 -5.41,-2.23 -6.84,-2.23 l 0,-1.25 c 0.84,0 3.14,0 5.05,0.97 l 0,-17.78 c 0,-1.15 0,-1.61 -3.48,-1.61 l -1.33,0 0,-1.25 12.45,0 0,1.25 -1.32,0 c -3.49,0 -3.49,0.46 -3.49,1.61 z"
           id="path7571"
           inkscape:connector-curvature="0"
           style="fill:#000000;stroke-width:0" /><polyline
           points="510,418 529.92,418 529.92,420.04 510,420.04 "
           id="polyline7573"
           style="fill:#000000;fill-rule:nonzero;stroke-width:0" /><path
           d="m 519.52,400.64 0.25,0 0.25,-0.02 0.24,-0.02 0.24,-0.04 0.23,-0.05 0.23,-0.06 0.22,-0.07 0.22,-0.09 0.21,-0.09 0.2,-0.11 0.19,-0.11 0.19,-0.13 0.18,-0.13 0.18,-0.15 0.17,-0.16 0.15,-0.17 0.16,-0.18 0.14,-0.2 0.13,-0.2 0.13,-0.21 0.12,-0.23 0.11,-0.23 0.09,-0.25 0.09,-0.26 0.08,-0.27 0.07,-0.28 0.06,-0.29 0.05,-0.3 0.04,-0.31 0.03,-0.32 0.02,-0.33 0,-0.35 c 0,-4.32 -2.51,-5.61 -4.53,-5.61 -1.39,0 -4.46,0.38 -5.93,2.44 1.64,0.07 2.02,1.22 2.02,1.95 0,1.12 -0.83,1.92 -1.91,1.92 -0.98,0 -1.96,-0.59 -1.96,-2.02 0,-3.28 3.63,-5.41 7.85,-5.41 4.84,0 8.19,3.25 8.19,6.73 0,2.72 -2.23,5.44 -6.07,6.24 3.67,1.33 4.99,3.94 4.99,6.07 0,2.76 -3.17,4.81 -7.04,4.81 -3.87,0 -6.83,-1.88 -6.83,-4.67 0,-1.18 0.76,-1.85 1.81,-1.85 1.08,0 1.77,0.8 1.77,1.78 0,1.01 -0.69,1.75 -1.77,1.81 1.22,1.54 3.62,1.92 4.92,1.92 1.56,0 3.76,-0.76 3.76,-3.8 0,-1.46 -0.49,-3.07 -1.39,-4.15 -1.16,-1.32 -2.13,-1.39 -3.87,-1.5 -0.88,-0.07 -0.95,-0.07 -1.12,-0.1 -0.07,0 -0.35,-0.07 -0.35,-0.46 0,-0.49 0.31,-0.49 0.91,-0.49 z"
           id="path7575"
           inkscape:connector-curvature="0"
           style="fill:#000000;stroke-width:0" /></g>    </g>
    <g
       id="g7669"
       transform="translate(153.28824,-701.04596)">
      <g
         word-spacing="normal"
         letter-spacing="normal"
         font-size-adjust="none"
         font-stretch="normal"
         font-weight="normal"
         font-variant="normal"
         font-style="normal"
         stroke-miterlimit="10.433"
         xml:space="preserve"
         transform="matrix(0.75928009,0,0,-0.75928009,-132.87402,1113.9027)"
         id="g7671"
         style="font-style:normal;font-variant:normal;font-weight:normal;font-stretch:normal;letter-spacing:normal;word-spacing:normal;text-anchor:start;fill:none;fill-opacity:1;fill-rule:evenodd;stroke:#000000;stroke-linecap:butt;stroke-linejoin:miter;stroke-miterlimit:10.43299961;stroke-dasharray:none;stroke-dashoffset:0;stroke-opacity:1"><path
           id="path7673"
           d="m 467.91,440.02 0,0.01 0,0 0,0.01 0,0.01 -0.01,0.01 0,0.01 0,0.02 0,0.02 0,0.02 -0.01,0.02 0,0.02 -0.01,0.02 -0.01,0.03 -0.01,0.02 -0.01,0.03 -0.01,0.02 -0.01,0.02 -0.02,0.03 -0.02,0.02 -0.02,0.03 -0.02,0.02 -0.01,0.01 -0.02,0.01 -0.01,0.01 -0.01,0.01 -0.02,0.01 -0.01,0.01 -0.02,0.01 -0.02,0.01 -0.01,0.01 -0.02,0.01 -0.02,0.01 -0.02,0 -0.02,0.01 -0.02,0.01 -0.03,0 -0.02,0.01 -0.02,0 -0.03,0.01 -0.02,0 -0.03,0 -0.03,0.01 -0.02,0 -0.03,0 -0.03,0 c -1.15,0 -4.78,-0.4 -6.08,-0.5 -0.4,-0.05 -0.95,-0.1 -0.95,-1 0,-0.59 0.45,-0.59 1.2,-0.59 2.39,0 2.49,-0.35 2.49,-0.85 0,-0.35 -0.45,-2.04 -0.7,-3.09 l -4.08,-16.24 c -0.6,-2.49 -0.8,-3.28 -0.8,-5.03 0,-4.73 2.64,-7.82 6.33,-7.82 l 0,1.1 c -1.7,0 -3.34,1.34 -3.34,5.03 0,0.95 0,1.89 0.8,5.03 l 1.09,4.58 c 0.3,1.1 0.3,1.2 0.75,1.75 2.44,3.24 4.68,3.98 5.98,3.98 1.79,0 3.14,-1.49 3.14,-4.68 0,-2.94 -1.65,-8.67 -2.54,-10.56 -1.65,-3.34 -3.94,-5.13 -5.88,-5.13 l 0,-1.1 c 5.88,0 12,7.43 12,14.6 0,4.53 -2.64,7.97 -6.62,7.97 -2.29,0 -4.34,-1.45 -5.83,-2.99 z"
           inkscape:connector-curvature="0"
           style="fill:#000000;stroke-width:0" /><path
           id="path7675"
           d="m 487.11,406.05 0,0.31 -0.01,0.29 -0.02,0.29 -0.02,0.28 -0.04,0.27 -0.03,0.26 -0.05,0.26 -0.05,0.24 -0.06,0.24 -0.07,0.23 -0.07,0.22 -0.07,0.21 -0.09,0.2 -0.09,0.19 -0.09,0.18 -0.1,0.18 -0.11,0.16 -0.11,0.15 -0.12,0.15 -0.12,0.13 -0.13,0.13 -0.13,0.11 -0.14,0.1 -0.15,0.1 -0.15,0.08 -0.15,0.07 -0.16,0.06 -0.16,0.05 -0.17,0.04 -0.17,0.03 -0.17,0.02 -0.18,0 c -1.65,0 -2.64,-1.24 -2.64,-2.64 0,-1.34 0.99,-2.64 2.64,-2.64 0.59,0 1.24,0.2 1.74,0.65 0.15,0.1 0.2,0.15 0.25,0.15 0.04,0 0.1,-0.05 0.1,-0.75 0,-3.69 -1.75,-6.67 -3.39,-8.32 -0.55,-0.55 -0.55,-0.65 -0.55,-0.8 0,-0.34 0.25,-0.54 0.5,-0.54 0.55,0 4.53,3.83 4.53,9.66 z"
           inkscape:connector-curvature="0"
           style="fill:#000000;stroke-width:0" /><path
           id="path7677"
           d="m 516.68,448.18 0,0.04 0,0.04 0,0.04 0,0.04 0,0.04 0,0.04 0,0.03 0,0.04 -0.01,0.03 0,0.03 0,0.04 0,0.03 -0.01,0.02 0,0.03 0,0.03 -0.01,0.03 0,0.02 0,0.02 -0.02,0.05 -0.01,0.04 -0.01,0.04 -0.02,0.03 -0.02,0.03 -0.02,0.03 -0.03,0.03 -0.02,0.02 -0.03,0.02 -0.04,0.02 -0.03,0.01 -0.04,0.01 -0.05,0.02 -0.05,0 -0.02,0.01 -0.03,0 -0.03,0.01 -0.02,0 -0.03,0 -0.03,0 -0.04,0 -0.03,0.01 -0.03,0 -0.04,0 -0.03,0 -0.04,0 -0.04,0 -0.04,0 -0.04,0 -0.04,0 -0.05,0 -0.04,0 c -2.24,-2.19 -5.41,-2.23 -6.84,-2.23 l 0,-1.25 c 0.84,0 3.14,0 5.05,0.97 l 0,-17.78 c 0,-1.15 0,-1.61 -3.48,-1.61 l -1.33,0 0,-1.25 12.45,0 0,1.25 -1.32,0 c -3.49,0 -3.49,0.46 -3.49,1.61 z"
           inkscape:connector-curvature="0"
           style="fill:#000000;stroke-width:0" /><polyline
           id="polyline7679"
           points="505,418 524.92,418 524.92,420.04 505,420.04 "
           style="fill:#000000;fill-rule:nonzero;stroke-width:0" /><path
           id="path7681"
           d="m 510.23,400.4 0,0.53 0.01,0.53 0.02,0.52 0.03,0.51 0.04,0.51 0.05,0.49 0.06,0.49 0.08,0.48 0.09,0.47 0.11,0.46 0.13,0.46 0.15,0.44 0.08,0.22 0.08,0.22 0.09,0.21 0.1,0.21 0.11,0.21 0.1,0.2 0.12,0.21 0.12,0.2 c 1.18,1.88 3.07,3.17 5.3,3.17 1.05,0 2.44,-0.28 3.14,-1.22 -0.87,-0.07 -1.61,-0.66 -1.61,-1.67 0,-0.87 0.6,-1.64 1.64,-1.64 1.05,0 1.68,0.69 1.68,1.71 0,2.02 -1.47,3.83 -4.92,3.83 -5.02,0 -10.15,-4.6 -10.15,-12.1 0,-9.03 4.26,-11.75 8.09,-11.75 4.26,0 7.95,3.25 7.95,7.81 0,4.43 -3.52,7.71 -7.6,7.71 l -0.17,-0.98 c 1.6,0 2.68,-0.63 3.55,-1.91 0.84,-1.33 0.87,-2.79 0.87,-4.82 0,-1.99 0,-3.45 -0.94,-4.81 -0.83,-1.22 -1.95,-1.88 -3.66,-1.88 l 0,0 c -1.74,0 -3.1,1.01 -3.83,2.54 -0.53,1.05 -0.8,2.79 -0.8,4.88 0,3.39 2.01,6 4.81,6 l 0.17,0.98 c -2.79,0 -4.32,-1.85 -5.09,-3.42 z"
           inkscape:connector-curvature="0"
           style="fill:#000000;stroke-width:0" /></g>    </g>
    <path
       style="fill:none;fill-rule:evenodd;stroke:#000000;stroke-width:2;stroke-linecap:butt;stroke-linejoin:miter;stroke-miterlimit:4;stroke-dasharray:none;stroke-opacity:1;marker-end:url(#marker20823-5-3-9)"
       d="m 491.78795,-59.158037 3.10075,-2.515778"
       id="path20815-2-5-2"
       inkscape:connector-curvature="0" />
    <path
       style="fill:none;fill-rule:evenodd;stroke:#000000;stroke-width:2;stroke-linecap:butt;stroke-linejoin:miter;stroke-miterlimit:4;stroke-dasharray:none;stroke-opacity:1;marker-end:url(#marker20823-5-3-9-2)"
       d="m 489.8446,310.3482 3.10075,2.51578"
       id="path20815-2-5-2-0"
       inkscape:connector-curvature="0" />
    <g
       id="g9440"
       transform="matrix(1.2896336,0,0,1.2896336,342.10042,-175.82438)">
      <g
         word-spacing="normal"
         letter-spacing="normal"
         font-size-adjust="none"
         font-stretch="normal"
         font-weight="normal"
         font-variant="normal"
         font-style="normal"
         stroke-miterlimit="10.433"
         xml:space="preserve"
         transform="matrix(0.72294317,0,0,-0.72294317,-126.51506,536.44373)"
         id="g9442"
         style="font-style:normal;font-variant:normal;font-weight:normal;font-stretch:normal;letter-spacing:normal;word-spacing:normal;text-anchor:start;fill:none;fill-opacity:1;fill-rule:evenodd;stroke:#000000;stroke-linecap:butt;stroke-linejoin:miter;stroke-miterlimit:10.43299961;stroke-dasharray:none;stroke-dashoffset:0;stroke-opacity:1"><path
           id="path9444"
           d="m 478.02,440.77 -0.04,0.06 -0.03,0.06 -0.03,0.05 -0.02,0.05 -0.03,0.06 -0.03,0.04 -0.03,0.05 -0.02,0.04 -0.03,0.05 -0.03,0.04 -0.02,0.03 -0.03,0.04 -0.03,0.03 -0.03,0.03 -0.03,0.03 -0.03,0.03 -0.04,0.03 -0.03,0.02 -0.04,0.02 -0.04,0.02 -0.04,0.02 -0.04,0.02 -0.05,0.02 -0.05,0.01 -0.05,0.01 -0.05,0.01 -0.06,0.01 -0.06,0.01 -0.07,0 -0.07,0.01 -0.07,0 -0.08,0 c -0.84,0 -0.94,-0.25 -1.29,-0.9 l -0.3,-4.09 13.4,-26.89 -26.85,0 13.45,26.89 0.3,4.09 L 458.59,407 c -0.25,-0.45 -0.25,-0.55 -0.25,-0.6 0,-0.4 0.3,-0.4 1.1,-0.4 l 34.57,0 c 0.79,0 1.09,0 1.09,0.4 0,0.05 0,0.15 -0.24,0.6 z"
           inkscape:connector-curvature="0"
           style="fill:#000000;stroke-width:0" /><path
           id="path9446"
           d="m 520.56,424.83 0,0.13 -0.01,0.14 -0.02,0.13 -0.02,0.13 -0.03,0.12 -0.04,0.13 -0.04,0.12 -0.05,0.12 -0.05,0.12 -0.06,0.11 -0.06,0.11 -0.07,0.11 -0.08,0.1 -0.07,0.1 -0.09,0.1 -0.09,0.09 -0.09,0.09 -0.09,0.08 -0.1,0.08 -0.11,0.07 -0.1,0.07 -0.11,0.07 -0.12,0.06 -0.11,0.05 -0.12,0.05 -0.13,0.04 -0.12,0.04 -0.13,0.02 -0.13,0.03 -0.13,0.02 -0.13,0.01 -0.13,0 c -1.45,0 -2.65,-1.2 -2.65,-2.64 0,-1.45 1.2,-2.64 2.65,-2.64 1.44,0 2.63,1.19 2.63,2.64 z"
           inkscape:connector-curvature="0"
           style="fill:#000000;stroke-width:0" /><path
           id="path9448"
           d="m 520.56,408.64 0,0.14 -0.01,0.13 -0.02,0.13 -0.02,0.13 -0.03,0.13 -0.04,0.12 -0.04,0.12 -0.05,0.12 -0.05,0.12 -0.06,0.11 -0.06,0.11 -0.07,0.11 -0.08,0.1 -0.07,0.1 -0.09,0.1 -0.09,0.09 -0.09,0.09 -0.09,0.08 -0.1,0.08 -0.11,0.08 -0.1,0.07 -0.11,0.06 -0.12,0.06 -0.11,0.05 -0.12,0.05 -0.13,0.04 -0.12,0.04 -0.13,0.03 -0.13,0.02 -0.13,0.02 -0.13,0.01 -0.13,0 c -1.45,0 -2.65,-1.19 -2.65,-2.64 0,-1.44 1.2,-2.64 2.65,-2.64 1.44,0 2.63,1.2 2.63,2.64 z"
           inkscape:connector-curvature="0"
           style="fill:#000000;stroke-width:0" /><path
           id="path9450"
           d="m 571.13,440.62 0,0.02 0,0.01 0,0.02 -0.01,0.02 0,0.01 0,0.02 -0.01,0.02 0,0.02 -0.01,0.02 -0.01,0.02 -0.01,0.02 -0.01,0.02 -0.01,0.02 -0.01,0.02 -0.01,0.02 -0.02,0.02 -0.01,0.02 -0.02,0.02 -0.02,0.02 -0.02,0.02 -0.02,0.02 -0.02,0.01 -0.03,0.02 -0.02,0.01 -0.03,0.01 -0.02,0.01 -0.01,0 -0.02,0.01 -0.01,0 -0.02,0.01 -0.02,0 -0.01,0.01 -0.02,0 -0.02,0 -0.02,0 -0.02,0 -0.02,0.01 -0.02,0 -0.02,0 c -0.25,0 -0.3,-0.05 -0.9,-0.75 l -2.39,-2.84 c -1.29,2.34 -3.88,3.59 -7.12,3.59 -6.33,0 -12.3,-5.73 -12.3,-11.76 0,-4.03 2.64,-6.32 5.18,-7.07 l 5.33,-1.4 c 1.84,-0.44 4.58,-1.19 4.58,-5.28 0,-4.48 -4.08,-9.16 -8.97,-9.16 -3.19,0 -8.71,1.09 -8.71,7.27 0,1.2 0.25,2.39 0.29,2.69 0.05,0.2 0.11,0.25 0.11,0.35 0,0.5 -0.35,0.55 -0.6,0.55 -0.25,0 -0.35,-0.05 -0.5,-0.2 -0.2,-0.2 -2.99,-11.56 -2.99,-11.71 0,-0.3 0.25,-0.5 0.55,-0.5 0.25,0 0.3,0.05 0.89,0.75 l 2.45,2.84 c 2.14,-2.89 5.52,-3.59 8.42,-3.59 6.77,0 12.65,6.63 12.65,12.81 0,3.43 -1.7,5.13 -2.45,5.83 -1.14,1.14 -1.88,1.34 -6.32,2.48 -1.1,0.3 -2.89,0.8 -3.34,0.9 -1.34,0.45 -3.04,1.89 -3.04,4.53 0,4.04 3.99,8.27 8.72,8.27 4.13,0 7.17,-2.14 7.17,-7.72 0,-1.59 -0.2,-2.49 -0.2,-2.79 0,-0.05 0,-0.5 0.6,-0.5 0.5,0 0.55,0.15 0.75,1 z"
           inkscape:connector-curvature="0"
           style="fill:#000000;stroke-width:0" /><path
           id="path9452"
           d="m 602.38,419.85 -9.97,9.91 c -0.59,0.6 -0.69,0.7 -1.09,0.7 -0.5,0 -1,-0.45 -1,-1 0,-0.35 0.1,-0.45 0.65,-1 l 9.96,-10.01 -9.96,-10.01 c -0.55,-0.55 -0.65,-0.65 -0.65,-0.99 0,-0.55 0.5,-1 1,-1 0.4,0 0.5,0.1 1.09,0.69 l 9.92,9.92 10.31,-10.31 c 0.1,-0.05 0.45,-0.3 0.75,-0.3 0.59,0 0.99,0.45 0.99,1 0,0.09 0,0.29 -0.15,0.54 -0.05,0.1 -7.97,7.92 -10.46,10.46 l 9.12,9.12 c 0.25,0.3 0.99,0.95 1.24,1.24 0.05,0.1 0.25,0.3 0.25,0.65 0,0.55 -0.4,1 -0.99,1 -0.4,0 -0.6,-0.2 -1.15,-0.75 z"
           inkscape:connector-curvature="0"
           style="fill:#000000;stroke-width:0" /><path
           id="path9454"
           d="m 641.92,411.73 -0.19,-0.31 -0.19,-0.29 -0.18,-0.27 -0.19,-0.26 -0.18,-0.25 -0.19,-0.23 -0.19,-0.23 -0.18,-0.2 -0.19,-0.2 -0.18,-0.18 -0.19,-0.17 -0.19,-0.16 -0.19,-0.15 -0.18,-0.14 -0.19,-0.13 -0.19,-0.12 -0.19,-0.11 -0.19,-0.1 -0.19,-0.09 -0.19,-0.09 -0.2,-0.07 -0.19,-0.07 -0.19,-0.06 -0.2,-0.06 -0.2,-0.05 -0.19,-0.04 -0.2,-0.04 -0.2,-0.03 -0.4,-0.05 -0.41,-0.04 c -0.6,-0.04 -1.05,-0.04 -1.05,-0.99 0,-0.3 0.25,-0.55 0.65,-0.55 l 9.27,0 c 0.3,0 0.94,0 0.94,0.95 0,0.55 -0.44,0.59 -0.8,0.59 -1.14,0.1 -2.33,0.5 -2.33,1.75 0,0.6 0.29,1.14 0.69,1.84 l 3.79,6.38 12.5,0 -0.15,1.54 -11.4,0 9.81,16.44 1.59,-16.44 0.15,-1.54 c 0.1,-1.05 0.8,-7.82 0.8,-8.32 0,-1.49 -2.59,-1.65 -3.59,-1.65 -0.69,0 -1.19,0 -1.19,-0.99 0,-0.55 0.59,-0.55 0.69,-0.55 l 11.86,0 c 0.3,0 0.89,0 0.89,1 0,0.54 -0.49,0.54 -1.14,0.54 -3.09,0 -3.09,0.35 -3.24,1.8 l -3.04,31.13 c -0.09,1 -0.09,1.2 -0.94,1.2 -0.8,0 -1,-0.35 -1.3,-0.85 z"
           inkscape:connector-curvature="0"
           style="fill:#000000;stroke-width:0" /><path
           id="path9456"
           d="m 700.38,419.85 -9.97,9.91 c -0.59,0.6 -0.69,0.7 -1.09,0.7 -0.5,0 -1,-0.45 -1,-1 0,-0.35 0.1,-0.45 0.65,-1 l 9.96,-10.01 -9.96,-10.01 c -0.55,-0.55 -0.65,-0.65 -0.65,-0.99 0,-0.55 0.5,-1 1,-1 0.4,0 0.5,0.1 1.09,0.69 l 9.92,9.92 10.31,-10.31 c 0.1,-0.05 0.45,-0.3 0.75,-0.3 0.59,0 0.99,0.45 0.99,1 0,0.09 0,0.29 -0.15,0.54 -0.05,0.1 -7.97,7.92 -10.46,10.46 l 9.12,9.12 c 0.25,0.3 0.99,0.95 1.24,1.24 0.05,0.1 0.25,0.3 0.25,0.65 0,0.55 -0.4,1 -0.99,1 -0.4,0 -0.6,-0.2 -1.15,-0.75 z"
           inkscape:connector-curvature="0"
           style="fill:#000000;stroke-width:0" /><path
           id="path9458"
           d="m 763.13,440.62 0,0.02 0,0.01 0,0.02 -0.01,0.02 0,0.01 0,0.02 -0.01,0.02 0,0.02 -0.01,0.02 -0.01,0.02 -0.01,0.02 -0.01,0.02 -0.01,0.02 -0.01,0.02 -0.01,0.02 -0.02,0.02 -0.01,0.02 -0.02,0.02 -0.02,0.02 -0.02,0.02 -0.02,0.02 -0.02,0.01 -0.03,0.02 -0.02,0.01 -0.03,0.01 -0.02,0.01 -0.01,0 -0.02,0.01 -0.01,0 -0.02,0.01 -0.02,0 -0.01,0.01 -0.02,0 -0.02,0 -0.02,0 -0.02,0 -0.02,0.01 -0.02,0 -0.02,0 c -0.25,0 -0.3,-0.05 -0.9,-0.75 l -2.39,-2.84 c -1.29,2.34 -3.88,3.59 -7.12,3.59 -6.33,0 -12.3,-5.73 -12.3,-11.76 0,-4.03 2.64,-6.32 5.18,-7.07 l 5.33,-1.4 c 1.84,-0.44 4.58,-1.19 4.58,-5.28 0,-4.48 -4.08,-9.16 -8.97,-9.16 -3.19,0 -8.71,1.09 -8.71,7.27 0,1.2 0.25,2.39 0.29,2.69 0.05,0.2 0.11,0.25 0.11,0.35 0,0.5 -0.35,0.55 -0.6,0.55 -0.25,0 -0.35,-0.05 -0.5,-0.2 -0.2,-0.2 -2.99,-11.56 -2.99,-11.71 0,-0.3 0.25,-0.5 0.55,-0.5 0.25,0 0.3,0.05 0.89,0.75 l 2.45,2.84 c 2.14,-2.89 5.52,-3.59 8.42,-3.59 6.77,0 12.65,6.63 12.65,12.81 0,3.43 -1.7,5.13 -2.45,5.83 -1.14,1.14 -1.88,1.34 -6.32,2.48 -1.1,0.3 -2.89,0.8 -3.34,0.9 -1.34,0.45 -3.04,1.89 -3.04,4.53 0,4.04 3.99,8.27 8.72,8.27 4.13,0 7.17,-2.14 7.17,-7.72 0,-1.59 -0.2,-2.49 -0.2,-2.79 0,-0.05 0,-0.5 0.6,-0.5 0.5,0 0.55,0.15 0.75,1 z"
           inkscape:connector-curvature="0"
           style="fill:#000000;stroke-width:0" /><path
           id="path9460"
           d="m 819.54,417.46 -0.25,-0.2 -0.24,-0.19 -0.24,-0.2 -0.23,-0.19 -0.22,-0.2 -0.21,-0.19 -0.21,-0.19 -0.2,-0.18 -0.19,-0.19 -0.18,-0.18 -0.17,-0.18 -0.17,-0.18 -0.16,-0.17 -0.16,-0.17 -0.14,-0.16 -0.14,-0.17 -0.14,-0.15 -0.12,-0.16 -0.12,-0.15 -0.12,-0.14 -0.1,-0.14 -0.1,-0.13 -0.1,-0.13 -0.08,-0.12 -0.09,-0.11 -0.07,-0.11 -0.07,-0.1 -0.06,-0.1 -0.06,-0.09 -0.05,-0.08 -0.05,-0.07 -0.04,-0.06 c -2.24,-3.44 -2.64,-6.58 -2.64,-6.63 0,-0.6 0.6,-0.6 1,-0.6 0.85,0 0.89,0.1 1.09,1 1.15,4.88 4.09,9.07 9.72,11.35 0.59,0.2 0.74,0.31 0.74,0.65 0,0.35 -0.29,0.5 -0.4,0.55 -2.19,0.85 -8.22,3.34 -10.1,11.71 -0.16,0.59 -0.2,0.74 -1.05,0.74 -0.4,0 -1,0 -1,-0.59 0,-0.1 0.45,-3.24 2.54,-6.58 1,-1.49 2.44,-3.24 4.58,-4.83 l -37.01,0 c -0.89,0 -1.79,0 -1.79,-1 0,-0.99 0.9,-0.99 1.79,-0.99 z"
           inkscape:connector-curvature="0"
           style="fill:#000000;stroke-width:0" /><polygon
           id="polygon9462"
           points="847.88,443.36 847.88,393.55 854.7,393.55 854.7,395.54 849.87,395.54 849.87,441.37 854.7,441.37 854.7,443.36 "
           style="fill:#000000;stroke-width:0" /><path
           id="path9464"
           d="m 878.91,421.94 0,0.75 -0.01,0.74 -0.02,0.75 -0.03,0.74 -0.05,0.75 -0.06,0.74 -0.07,0.74 -0.1,0.73 -0.11,0.73 -0.14,0.73 -0.16,0.72 -0.19,0.72 -0.22,0.71 -0.24,0.71 -0.28,0.7 -0.15,0.35 -0.16,0.35 c -2.29,4.78 -6.37,5.58 -8.47,5.58 -2.98,0 -6.62,-1.3 -8.67,-5.93 -1.59,-3.44 -1.84,-7.32 -1.84,-11.31 0,-3.74 0.2,-8.22 2.24,-12.01 2.15,-4.03 5.78,-5.03 8.22,-5.03 l 0,1.1 c -1.94,0 -4.88,1.25 -5.78,6.03 -0.54,2.99 -0.54,7.57 -0.54,10.51 0,3.19 0,6.47 0.4,9.16 0.94,5.93 4.68,6.38 5.92,6.38 1.65,0 4.94,-0.9 5.88,-5.83 0.5,-2.79 0.5,-6.57 0.5,-9.71 0,-3.74 0,-7.13 -0.55,-10.31 -0.75,-4.73 -3.58,-6.23 -5.83,-6.23 l 0,0 0,-1.1 c 2.69,0 6.48,1.05 8.67,5.78 1.59,3.44 1.84,7.32 1.84,11.26 z"
           inkscape:connector-curvature="0"
           style="fill:#000000;stroke-width:0" /><path
           id="path9466"
           d="m 891.11,406.05 0,0.31 -0.01,0.29 -0.02,0.29 -0.02,0.28 -0.04,0.27 -0.03,0.26 -0.05,0.26 -0.05,0.24 -0.06,0.24 -0.07,0.23 -0.07,0.22 -0.07,0.21 -0.09,0.2 -0.09,0.19 -0.09,0.18 -0.1,0.18 -0.11,0.16 -0.11,0.15 -0.12,0.15 -0.12,0.13 -0.13,0.13 -0.13,0.11 -0.14,0.1 -0.15,0.1 -0.15,0.08 -0.15,0.07 -0.16,0.06 -0.16,0.05 -0.17,0.04 -0.17,0.03 -0.17,0.02 -0.18,0 c -1.65,0 -2.65,-1.24 -2.65,-2.64 0,-1.34 1,-2.64 2.65,-2.64 0.59,0 1.24,0.2 1.74,0.65 0.15,0.1 0.2,0.15 0.25,0.15 0.05,0 0.1,-0.05 0.1,-0.75 0,-3.69 -1.75,-6.67 -3.39,-8.32 -0.55,-0.55 -0.55,-0.65 -0.55,-0.8 0,-0.34 0.25,-0.54 0.5,-0.54 0.55,0 4.53,3.83 4.53,9.66 z"
           inkscape:connector-curvature="0"
           style="fill:#000000;stroke-width:0" /><path
           id="path9468"
           d="m 917.65,437.88 0,0.05 -0.01,0.06 0,0.05 0,0.05 0,0.05 0,0.05 0,0.04 0,0.05 0,0.04 0,0.04 0,0.04 0,0.04 0,0.04 -0.01,0.04 0,0.03 0,0.04 -0.01,0.03 0,0.03 -0.01,0.06 -0.01,0.05 -0.02,0.05 -0.01,0.05 -0.02,0.04 -0.02,0.04 -0.03,0.04 -0.03,0.03 -0.03,0.02 -0.03,0.03 -0.04,0.02 -0.05,0.02 -0.02,0.01 -0.03,0.01 -0.02,0 -0.03,0.01 -0.03,0.01 -0.03,0 -0.03,0.01 -0.03,0 -0.03,0.01 -0.04,0 -0.04,0 -0.03,0 -0.04,0.01 -0.04,0 -0.04,0 -0.05,0 -0.04,0 -0.05,0 -0.05,0.01 -0.05,0 -0.05,0 -0.05,0 c -3.09,-3.19 -7.47,-3.19 -9.07,-3.19 l 0,-1.55 c 1,0 3.94,0 6.53,1.3 l 0,-25.81 c 0,-1.79 -0.15,-2.39 -4.63,-2.39 l -1.6,0 0,-1.54 16.14,0 0,1.54 -1.59,0 c -4.49,0 -4.63,0.55 -4.63,2.39 z"
           inkscape:connector-curvature="0"
           style="fill:#000000;stroke-width:0" /><polygon
           id="polygon9470"
           points="929.1,393.55 935.92,393.55 935.92,443.36 929.1,443.36 929.1,441.37 933.93,441.37 933.93,395.54 929.1,395.54 "
           style="fill:#000000;stroke-width:0" /></g>    </g>
    <g
       id="g4627"
       transform="translate(475.76339,-271.61725)">
      <g
         word-spacing="normal"
         letter-spacing="normal"
         font-size-adjust="none"
         font-stretch="normal"
         font-weight="normal"
         font-variant="normal"
         font-style="normal"
         stroke-miterlimit="10.433"
         xml:space="preserve"
         transform="matrix(0.74450622,0,0,-0.74450622,-130.28859,632.66169)"
         id="g4629"
         style="font-style:normal;font-variant:normal;font-weight:normal;font-stretch:normal;letter-spacing:normal;word-spacing:normal;text-anchor:start;fill:none;fill-opacity:1;fill-rule:evenodd;stroke:#000000;stroke-linecap:butt;stroke-linejoin:miter;stroke-miterlimit:10.43299961;stroke-dasharray:none;stroke-dashoffset:0;stroke-opacity:1"><path
           id="path4631"
           d="m 483.2,412.57 -11.96,26.36 c -0.54,1.24 -1.09,1.24 -2.19,1.24 l -11.06,0 0,-2.34 5.38,0 0,-28.04 c 0,-1.1 -0.05,-1.15 -1.44,-1.3 -1.2,-0.15 -1.3,-0.15 -2.69,-0.15 l -1.25,0 0,-2.34 13.4,0 0,2.34 -1.24,0 c -0.9,0 -1.75,0.05 -2.64,0.15 -1.45,0.15 -1.5,0.2 -1.5,1.3 l 0,27.39 0.05,0 13.55,-29.93 c 0.45,-1 1.05,-1.25 1.6,-1.25 0.99,0 1.39,0.75 1.59,1.2 l 13.9,30.63 0.05,0 0,-29.49 -5.38,0 0,-2.34 16.99,0 0,2.34 -5.39,0 0,29.49 5.39,0 0,2.34 -11.02,0 c -1.09,0 -1.64,0 -2.19,-1.24 z"
           inkscape:connector-curvature="0"
           style="fill:#000000;stroke-width:0" /><path
           id="path4633"
           d="m 528.63,409.84 0,-0.3 0.01,-0.31 0.01,-0.16 0.01,-0.16 0.02,-0.16 0.03,-0.16 0.03,-0.17 0.05,-0.16 0.05,-0.16 0.06,-0.16 0.08,-0.15 0.08,-0.16 0.1,-0.14 0.12,-0.15 0.13,-0.14 0.14,-0.14 0.16,-0.13 0.09,-0.06 0.09,-0.06 0.1,-0.06 0.1,-0.06 0.11,-0.06 0.11,-0.05 0.12,-0.05 0.12,-0.05 0.13,-0.05 0.14,-0.05 0.14,-0.04 0.14,-0.04 0.15,-0.04 0.16,-0.04 0.16,-0.03 0.17,-0.03 0.18,-0.03 0.18,-0.03 0.19,-0.02 0.2,-0.02 0.2,-0.02 0.21,-0.01 0.22,-0.02 0.22,0 0.23,-0.01 0.24,0 2.39,0 c 1,0 1.6,0 1.6,1.2 0,1.14 -0.65,1.14 -1.3,1.14 -3.04,0.05 -3.04,0.7 -3.04,1.84 l 0,10.71 c 0,4.44 -3.53,7.68 -10.96,7.68 -2.84,0 -8.91,-0.2 -8.91,-4.59 0,-2.19 1.74,-3.14 3.09,-3.14 1.54,0 3.13,1.05 3.13,3.14 0,1.5 -0.94,2.34 -1.09,2.44 1.39,0.3 2.99,0.35 3.58,0.35 3.74,0 5.48,-2.09 5.48,-5.88 l 0,-1.69 0,-1.54 0,-4.73 c 0,-4.79 -4.58,-5.43 -5.82,-5.43 -2.55,0 -4.54,1.74 -4.54,3.93 0,5.38 7.87,6.08 10.36,6.23 l 0,0 0,1.54 c -3.53,-0.15 -16.19,-0.6 -16.19,-7.82 0,-4.78 6.18,-5.68 9.62,-5.68 3.98,0 6.32,2.04 7.42,4.14 z"
           inkscape:connector-curvature="0"
           style="fill:#000000;stroke-width:0" /><path
           id="path4635"
           d="m 548.11,422.79 0,5.62 -8.27,-0.39 0,-2.34 c 3.09,0 3.44,0 3.44,-1.95 l 0,-15.39 -3.44,0 0,-2.34 13.15,0 0,2.34 -4.33,0 0,8.72 c 0,3.49 1.25,9.56 6.23,9.56 -0.05,-0.05 -0.95,-0.84 -0.95,-2.29 0,-2.04 1.59,-3.04 3.04,-3.04 1.44,0 3.04,1.05 3.04,3.04 0,2.64 -2.69,4.08 -5.28,4.08 -3.49,0 -5.48,-2.48 -6.63,-5.62 z"
           inkscape:connector-curvature="0"
           style="fill:#000000;stroke-width:0" /><path
           id="path4637"
           d="m 571.66,417.8 0,22.77 -8.82,-0.4 0,-2.34 c 3.09,0 3.44,0 3.44,-1.94 l 0,-27.55 -3.44,0 0,-2.34 12.01,0 0,2.34 -3.44,0 0,6.33 c 1.44,1.14 1.84,1.44 2.84,2.14 l 5.03,-6.28 c 0.45,-0.6 1.25,-1.59 1.25,-1.74 0,-0.45 -0.9,-0.45 -1.55,-0.45 l 0,-2.34 11.26,0 0,2.34 -0.84,0 c -2.15,0 -2.3,0.2 -2.95,1 l -8.42,10.51 6.48,5.03 c 0.7,0.55 1.15,0.9 4.49,0.9 l 0,2.34 -9.62,0 0,-2.34 c 1.15,0 1.3,-0.16 1.69,-0.55 z"
           inkscape:connector-curvature="0"
           style="fill:#000000;stroke-width:0" /><path
           id="path4639"
           d="m 617,416.86 -0.01,0.62 -0.04,0.61 -0.07,0.6 -0.09,0.59 -0.12,0.57 -0.15,0.57 -0.17,0.55 -0.19,0.53 -0.22,0.53 -0.25,0.5 -0.27,0.49 -0.3,0.48 -0.32,0.45 -0.35,0.44 -0.36,0.42 -0.4,0.41 -0.41,0.38 -0.45,0.36 -0.46,0.34 -0.49,0.32 -0.51,0.3 -0.53,0.28 -0.56,0.25 -0.57,0.23 -0.6,0.2 -0.63,0.18 -0.64,0.15 -0.67,0.13 -0.68,0.1 -0.71,0.07 -0.73,0.04 -0.75,0.02 0,-1.8 c 2.09,0 4.18,-0.79 5.28,-2.54 1.04,-1.69 1.04,-4.43 1.04,-6.82 0,-4.34 0,-9.71 -6.32,-9.71 l 0,0 c -6.33,0 -6.33,5.37 -6.33,9.71 0,2.24 0,4.78 0.85,6.47 0.94,1.85 3.03,2.89 5.48,2.89 l 0,1.8 c -8.17,0 -12.71,-5.09 -12.71,-11.71 0,-6.18 4.39,-11.16 12.71,-11.16 8.36,0 12.7,5.03 12.7,11.16 z"
           inkscape:connector-curvature="0"
           style="fill:#000000;stroke-width:0" /><path
           id="path4641"
           d="m 642.21,424.73 0.05,0.13 0.06,0.11 0.03,0.06 0.03,0.06 0.04,0.05 0.04,0.05 0.04,0.05 0.05,0.04 0.05,0.05 0.06,0.04 0.07,0.04 0.07,0.03 0.08,0.04 0.08,0.03 0.1,0.04 0.1,0.03 0.12,0.02 0.12,0.03 0.14,0.02 0.07,0.01 0.07,0.01 0.08,0.01 0.08,0.01 0.09,0.01 0.08,0.01 0.09,0.01 0.1,0.01 0.09,0 0.1,0.01 0.11,0.01 0.1,0 0.11,0.01 0.12,0 0.12,0 0.12,0.01 0.13,0 0.13,0 0.13,0 0.14,0.01 0.14,0 0.15,0 0,2.34 -8.47,0 0,-2.34 c 0.95,0 2.39,-0.16 2.39,-0.55 0,-0.05 -0.04,-0.15 -0.24,-0.6 l -5.79,-12.45 -6.32,13.6 2.69,0 0,2.34 -11.85,0 0,-2.34 3.18,0 8.72,-18.73 c 0.6,-1.25 1.25,-1.25 1.89,-1.25 0.85,0 1.35,0.15 1.85,1.2 z"
           inkscape:connector-curvature="0"
           style="fill:#000000;stroke-width:0" /><path
           id="path4643"
           d="m 676.96,407.94 0.2,-0.16 0.2,-0.15 0.2,-0.15 0.2,-0.14 0.21,-0.13 0.2,-0.12 0.2,-0.12 0.2,-0.11 0.2,-0.11 0.21,-0.1 0.2,-0.1 0.2,-0.08 0.2,-0.09 0.2,-0.07 0.2,-0.08 0.2,-0.06 0.21,-0.06 0.2,-0.06 0.4,-0.1 0.39,-0.08 0.4,-0.07 0.39,-0.04 0.39,-0.04 0.39,-0.01 0.39,-0.01 -0.56,1.8 c -0.69,0 -3.03,0 -5.27,2.68 -0.55,0.65 -0.55,0.7 -0.55,1.65 l 0,10.56 c 0,0.95 0.05,0.99 0.75,1.69 1.99,2.04 4.58,2.34 5.68,2.34 3.33,0 6.12,-3.04 6.12,-9.31 0,-7.02 -3.49,-9.61 -6.73,-9.61 l 0.56,-1.8 c 7.47,0 12.55,4.48 12.55,11.41 0,6.62 -4.54,11.3 -11.71,11.3 -3.73,0 -6.38,-1.54 -7.52,-2.43 l 0,2.43 -8.82,-0.39 0,-2.34 c 3.09,0 3.44,0 3.44,-1.89 l 0,-25.11 -3.44,0 0,-2.34 12.56,0 0,2.34 -3.44,0 z"
           inkscape:connector-curvature="0"
           style="fill:#000000;stroke-width:0" /><path
           id="path4645"
           d="m 708.11,422.79 0,5.62 -8.27,-0.39 0,-2.34 c 3.09,0 3.44,0 3.44,-1.95 l 0,-15.39 -3.44,0 0,-2.34 13.15,0 0,2.34 -4.33,0 0,8.72 c 0,3.49 1.25,9.56 6.23,9.56 -0.05,-0.05 -0.95,-0.84 -0.95,-2.29 0,-2.04 1.59,-3.04 3.04,-3.04 1.44,0 3.04,1.05 3.04,3.04 0,2.64 -2.69,4.08 -5.28,4.08 -3.49,0 -5.48,-2.48 -6.63,-5.62 z"
           inkscape:connector-curvature="0"
           style="fill:#000000;stroke-width:0" /><path
           id="path4647"
           d="m 749,416.86 -0.01,0.62 -0.04,0.61 -0.07,0.6 -0.09,0.59 -0.12,0.57 -0.15,0.57 -0.17,0.55 -0.19,0.53 -0.22,0.53 -0.25,0.5 -0.27,0.49 -0.3,0.48 -0.32,0.45 -0.35,0.44 -0.36,0.42 -0.4,0.41 -0.41,0.38 -0.45,0.36 -0.46,0.34 -0.49,0.32 -0.51,0.3 -0.53,0.28 -0.56,0.25 -0.57,0.23 -0.6,0.2 -0.63,0.18 -0.64,0.15 -0.67,0.13 -0.68,0.1 -0.71,0.07 -0.73,0.04 -0.75,0.02 0,-1.8 c 2.09,0 4.18,-0.79 5.28,-2.54 1.04,-1.69 1.04,-4.43 1.04,-6.82 0,-4.34 0,-9.71 -6.32,-9.71 l 0,0 c -6.33,0 -6.33,5.37 -6.33,9.71 0,2.24 0,4.78 0.85,6.47 0.94,1.85 3.03,2.89 5.48,2.89 l 0,1.8 c -8.17,0 -12.71,-5.09 -12.71,-11.71 0,-6.18 4.39,-11.16 12.71,-11.16 8.36,0 12.7,5.03 12.7,11.16 z"
           inkscape:connector-curvature="0"
           style="fill:#000000;stroke-width:0" /><path
           id="path4649"
           d="m 769.93,426.27 -0.08,-0.07 -0.08,-0.08 -0.07,-0.08 -0.07,-0.08 -0.06,-0.08 -0.06,-0.08 -0.06,-0.08 -0.05,-0.08 -0.05,-0.08 -0.05,-0.08 -0.04,-0.08 -0.04,-0.08 -0.03,-0.08 -0.03,-0.08 -0.03,-0.08 -0.03,-0.08 -0.03,-0.08 -0.02,-0.08 -0.02,-0.07 -0.01,-0.08 -0.02,-0.07 -0.01,-0.07 -0.01,-0.07 -0.01,-0.06 -0.01,-0.07 -0.01,-0.06 0,-0.06 -0.01,-0.05 0,-0.06 0,-0.05 0,-0.04 0,-0.05 c 0,-2.19 1.74,-3.14 3.08,-3.14 1.55,0 3.14,1.05 3.14,3.14 0,4.29 -5.77,4.59 -8.66,4.59 -8.92,0 -12.6,-5.73 -12.6,-11.51 0,-6.63 4.67,-11.36 12.35,-11.36 8.07,0 9.56,5.78 9.56,6.13 0,0.7 -0.7,0.7 -1.2,0.7 -0.89,0 -0.94,-0.1 -1.19,-0.75 -1.3,-3.14 -3.69,-4.08 -6.23,-4.08 -6.92,0 -6.92,7.32 -6.92,9.61 0,2.79 0,9.26 6.43,9.26 1.74,0 2.58,-0.15 3.23,-0.3 z"
           inkscape:connector-curvature="0"
           style="fill:#000000;stroke-width:0" /><path
           id="path4651"
           d="m 800.02,416.86 0.1,0 0.09,0 0.1,0 0.09,0 0.09,0 0.08,0.01 0.08,0 0.08,0.01 0.07,0.01 0.07,0.01 0.07,0.01 0.06,0.02 0.06,0.02 0.06,0.02 0.05,0.03 0.05,0.03 0.05,0.03 0.04,0.04 0.05,0.04 0.03,0.05 0.04,0.05 0.03,0.06 0.01,0.03 0.02,0.03 0.01,0.03 0.01,0.04 0.02,0.03 0.01,0.04 0.01,0.04 0.01,0.04 0,0.04 0.01,0.05 0.01,0.04 0.01,0.05 0,0.05 0.01,0.05 0,0.05 0,0.06 0.01,0.05 0,0.06 0,0.06 0,0.06 c 0,1.55 -0.3,5.18 -2.79,7.68 -1.84,1.79 -4.48,2.69 -7.92,2.69 -7.97,0 -12.31,-5.14 -12.31,-11.36 0,-6.68 4.98,-11.51 13,-11.51 7.88,0 10.02,5.28 10.02,6.13 0,0.9 -0.95,0.9 -1.2,0.9 -0.84,0 -0.94,-0.25 -1.24,-1.05 -1.05,-2.39 -3.89,-3.98 -7.13,-3.98 -7.02,0 -7.07,6.62 -7.07,9.16 l 0,1.64 c 0.1,1.95 0.15,4.04 1.19,5.68 1.3,2 3.29,2.59 4.74,2.59 5.83,0 5.92,-6.52 5.98,-8.27 l -11.91,0 0,-1.64 z"
           inkscape:connector-curvature="0"
           style="fill:#000000;stroke-width:0" /><path
           id="path4653"
           d="m 814.51,420.64 -0.17,0.04 -0.19,0.03 -0.19,0.04 -0.2,0.04 -0.2,0.04 -0.2,0.04 -0.42,0.1 -0.42,0.11 -0.22,0.06 -0.21,0.07 -0.2,0.07 -0.21,0.07 -0.2,0.08 -0.2,0.09 -0.19,0.09 -0.19,0.1 -0.18,0.1 -0.17,0.11 -0.16,0.12 -0.15,0.12 -0.14,0.14 -0.14,0.14 -0.11,0.15 -0.11,0.15 -0.09,0.17 -0.04,0.09 -0.04,0.09 -0.03,0.09 -0.03,0.09 -0.02,0.1 -0.02,0.09 -0.02,0.11 -0.01,0.1 -0.01,0.1 0,0.11 c 0,3.09 4.63,3.09 5.58,3.09 3.74,0 5.63,-1.44 5.88,-4.18 0.05,-0.75 0.09,-1 1.14,-1 1.2,0 1.2,0.25 1.2,1.39 l 0,3.99 c 0,0.95 0,1.4 -0.9,1.4 -0.2,0 -0.3,0 -2.24,-0.95 -1.3,0.65 -3.04,0.95 -5.03,0.95 -1.5,0 -9.16,0 -9.16,-6.53 0,-1.99 0.99,-3.34 1.99,-4.18 1.99,-1.75 3.88,-2.05 7.71,-2.74 1.8,-0.3 5.54,-0.95 5.54,-3.89 0,-3.73 -4.59,-3.73 -5.68,-3.73 -5.28,0 -6.58,3.63 -7.18,5.77 -0.25,0.7 -0.5,0.7 -1.19,0.7 -1.19,0 -1.19,-0.3 -1.19,-1.44 l 0,-5.43 c 0,-0.95 0,-1.4 0.89,-1.4 0.35,0 0.45,0 1.49,0.75 0.05,0 1.15,0.75 1.3,0.85 2.29,-1.6 4.88,-1.6 5.88,-1.6 1.54,0 9.21,0 9.21,7.27 0,2.15 -0.99,3.89 -2.74,5.28 -1.94,1.45 -3.53,1.75 -7.42,2.39 z"
           inkscape:connector-curvature="0"
           style="fill:#000000;stroke-width:0" /><path
           id="path4655"
           d="m 836.51,420.64 -0.17,0.04 -0.19,0.03 -0.19,0.04 -0.2,0.04 -0.2,0.04 -0.2,0.04 -0.42,0.1 -0.42,0.11 -0.22,0.06 -0.21,0.07 -0.2,0.07 -0.21,0.07 -0.2,0.08 -0.2,0.09 -0.19,0.09 -0.19,0.1 -0.18,0.1 -0.17,0.11 -0.16,0.12 -0.15,0.12 -0.14,0.14 -0.14,0.14 -0.11,0.15 -0.11,0.15 -0.09,0.17 -0.04,0.09 -0.04,0.09 -0.03,0.09 -0.03,0.09 -0.02,0.1 -0.02,0.09 -0.02,0.11 -0.01,0.1 -0.01,0.1 0,0.11 c 0,3.09 4.63,3.09 5.58,3.09 3.74,0 5.63,-1.44 5.88,-4.18 0.05,-0.75 0.09,-1 1.14,-1 1.2,0 1.2,0.25 1.2,1.39 l 0,3.99 c 0,0.95 0,1.4 -0.9,1.4 -0.2,0 -0.3,0 -2.24,-0.95 -1.3,0.65 -3.04,0.95 -5.03,0.95 -1.5,0 -9.16,0 -9.16,-6.53 0,-1.99 0.99,-3.34 1.99,-4.18 1.99,-1.75 3.88,-2.05 7.71,-2.74 1.8,-0.3 5.54,-0.95 5.54,-3.89 0,-3.73 -4.59,-3.73 -5.68,-3.73 -5.28,0 -6.58,3.63 -7.18,5.77 -0.25,0.7 -0.5,0.7 -1.19,0.7 -1.19,0 -1.19,-0.3 -1.19,-1.44 l 0,-5.43 c 0,-0.95 0,-1.4 0.89,-1.4 0.35,0 0.45,0 1.49,0.75 0.05,0 1.15,0.75 1.3,0.85 2.29,-1.6 4.88,-1.6 5.88,-1.6 1.54,0 9.21,0 9.21,7.27 0,2.15 -0.99,3.89 -2.74,5.28 -1.94,1.45 -3.53,1.75 -7.42,2.39 z"
           inkscape:connector-curvature="0"
           style="fill:#000000;stroke-width:0" /></g>    </g>
  </g>
</svg>
